<?xml version="1.0" standalone="no"?>
<!DOCTYPE svg PUBLIC "-//W3C//DTD SVG 1.1//EN" "http://www.w3.org/Graphics/SVG/1.1/DTD/svg11.dtd" >
<svg xmlns="http://www.w3.org/2000/svg">
<metadata>Generated by IcoMoon</metadata>
<defs>
<font id="ultimate-store-kit" horiz-adv-x="1024">
<font-face units-per-em="1024" ascent="896" descent="-128" />
<missing-glyph horiz-adv-x="1024" />
<glyph unicode="&#x20;" horiz-adv-x="0" d="" />
<glyph unicode="&#xe604;" glyph-name="hexagon-radius" d="M555.898-81.99c-23.378-13.504-61.618-13.504-84.942 0l-344.758 199.072c-23.33 13.504-42.448 46.61-42.448 73.62l-0.096 398.094c0 27.006 19.118 60.116 42.496 73.62l344.758 199.072c23.378 13.504 61.616 13.504 84.99 0l344.804-199.072c23.33-13.504 42.496-46.61 42.496-73.62v-398.144c0-27.006-19.168-60.116-42.496-73.62l-344.804-199.024z" />
<glyph unicode="&#xe900;" glyph-name="moimir" d="M495.62 670.36c71.948 0 139.748-31.724 189.51-81.692v-0.208c0 23.844 16.172 41.882 38.566 41.882h5.598c35.040 0 42.090-33.174 42.090-43.542l0.208-371.97c-2.488-24.258 25.088-36.906 40.432-21.356 59.714 61.378 131.246 315.574-37.114 462.786-156.958 137.468-367.408 114.864-479.372 37.736-119.014-82.109-195.108-263.738-121.088-434.38 80.656-186.192 311.426-241.552 448.478-186.192 69.46 27.986 101.598-65.934 29.442-96.414-109.062-46.444-412.194-41.676-554.016 203.607-95.792 165.666-90.608 457.394 163.178 608.338 194.278 115.486 450.344 83.558 604.606-77.752 161.312-168.568 151.977-484.348-5.39-607.094-71.326-55.774-177.276-1.452-176.654 79.826l-0.83 26.54c-49.762-49.348-115.696-77.96-187.854-77.96-142.236 0-267.47 125.234-267.47 267.47 0.208 143.688 125.442 270.372 267.678 270.372v0 0 0zM674.762 410.354c-5.39 104.086-82.723 166.91-176.032 166.91h-3.524c-107.818 0-167.532-84.802-167.532-181.008 0-107.818 72.362-175.826 167.123-175.826 105.744 0 175.204 77.338 180.18 168.98l-0.208 20.942z" />
<glyph unicode="&#xe901;" glyph-name="search" d="M684.416 219.477c-1.451-1.109-2.859-2.347-4.224-3.712s-2.56-2.731-3.712-4.224c-53.675-51.755-126.677-83.541-207.147-83.541-82.475 0-157.099 33.365-211.2 87.467s-87.467 128.725-87.467 211.2 33.365 157.099 87.467 211.2 128.725 87.467 211.2 87.467 157.099-33.365 211.2-87.467 87.467-128.725 87.467-211.2c0-80.469-31.787-153.472-83.584-207.189zM926.165 30.165l-156.8 156.8c52.523 65.707 83.968 149.035 83.968 239.701 0 106.027-43.008 202.069-112.469 271.531s-165.504 112.469-271.531 112.469-202.069-43.008-271.531-112.469-112.469-165.504-112.469-271.531 43.008-202.069 112.469-271.531 165.504-112.469 271.531-112.469c90.667 0 173.995 31.445 239.701 83.968l156.8-156.8c16.683-16.683 43.691-16.683 60.331 0s16.683 43.691 0 60.331z" />
<glyph unicode="&#xe902;" glyph-name="add-to-cart" d="M894.976 594.944c-9.216 12.288-23.552 18.432-38.912 18.432h-94.208c-5.12 99.328-87.040 178.176-187.392 178.176s-182.272-78.848-187.392-178.176h-139.264l-22.528 136.192c-4.096 24.576-24.576 41.984-49.152 41.984h-48.128c-6.144 0-10.24-4.096-10.24-10.24s4.096-10.24 10.24-10.24h48.128c14.336 0 26.624-10.24 28.672-24.576l98.304-605.184c4.096-24.576 24.576-41.984 49.152-41.984h16.384c-13.312-13.312-21.504-31.744-21.504-51.2 0-39.936 32.768-71.68 71.68-71.68s71.68 32.768 71.68 71.68c0 20.48-8.192 37.888-21.504 51.2h237.568c-13.312-13.312-21.504-31.744-21.504-51.2 0-39.936 32.768-71.68 71.68-71.68s71.68 32.768 71.68 71.68c0 39.936-32.768 71.68-71.68 71.68h-403.456c-14.336 0-26.624 10.24-28.672 24.576l-13.312 78.848h480.256c23.552 0 44.032 16.384 49.152 38.912l63.488 289.792c4.096 16.384 1.024 31.744-9.216 43.008zM809.984 49.152c0-28.672-23.552-51.2-51.2-51.2s-51.2 23.552-51.2 51.2 23.552 51.2 51.2 51.2 51.2-23.552 51.2-51.2zM472.064 49.152c0-28.672-23.552-51.2-51.2-51.2-28.672 0-51.2 23.552-51.2 51.2s23.552 51.2 51.2 51.2c27.648 0 51.2-23.552 51.2-51.2zM574.464 772.096c92.16 0 167.936-75.776 167.936-167.936s-75.776-167.936-167.936-167.936-167.936 75.776-167.936 167.936 75.776 167.936 167.936 167.936zM884.736 558.080l-63.488-289.792c-3.072-13.312-15.36-23.552-28.672-23.552h-484.352l-56.32 348.16h135.168c2.048-35.84 13.312-68.608 32.768-96.256v-156.672c0-6.144 4.096-10.24 10.24-10.24s10.24 4.096 10.24 10.24v133.12c21.504-22.528 48.128-38.912 77.824-48.128v-82.944c0-6.144 4.096-10.24 10.24-10.24s10.24 4.096 10.24 10.24v77.824c12.288-2.048 23.552-4.096 36.864-4.096 12.288 0 23.552 1.024 34.816 3.072v-77.824c0-6.144 4.096-10.24 10.24-10.24s10.24 4.096 10.24 10.24v81.92c31.744 9.216 59.392 26.624 80.896 50.176v-132.096c0-6.144 4.096-10.24 10.24-10.24s10.24 4.096 10.24 10.24v158.72c18.432 27.648 29.696 59.392 31.744 94.208h94.208c9.216 0 17.408-4.096 22.528-11.264s6.144-16.384 4.096-24.576zM495.616 593.92h70.656v-68.608c0-6.144 4.096-10.24 10.24-10.24s10.24 4.096 10.24 10.24v68.608h69.632c6.144 0 10.24 4.096 10.24 10.24s-4.096 10.24-10.24 10.24h-69.632v70.656c0 6.144-4.096 10.24-10.24 10.24s-10.24-4.096-10.24-10.24v-70.656h-70.656c-6.144 0-10.24-4.096-10.24-10.24s4.096-10.24 10.24-10.24z" />
<glyph unicode="&#xe903;" glyph-name="instapaper" d="M317.361 894h389.272v-96.646c0 0-27.786 1.972-71.313 2.712s-43.524-52.125-43.524-56.069c0-21.388-0.74-685.336-0.74-685.336s0-37.619 33.694-49.925h81.893v-90.738h-389.272v91.47l76.964-1.726c0 0 37.619 4.911 38.605 52.371 0.493 32.462-1.479 619.919-1.726 688.048-2.958 12.536-0.493 55.083-59.018 51.881-22.128-1.233-54.836-1.479-54.836-1.479v95.413z" />
<glyph unicode="&#xe904;" glyph-name="surfingbird" d="M852.126 605.245l-13.686-127.195-219.975-216.352h-116.73l-44.679-116.931v-161.409l-158.189 44.679 182.138 326.44-481.006 271.497 360.855-48.101-175.296 250.767 477.585-257.811 140.881 158.189h65.409l154.566-68.83z" />
<glyph unicode="&#xe905;" glyph-name="livejournal" horiz-adv-x="954" d="M508.8 825.2c-64 0-121.6-12.8-176-35.2l-102.4 96c-102.4-44.8-185.6-128-230.4-233.6l99.2-99.2c44.8 105.6 128 188.8 230.4 233.6v0l364.8-361.6c-102.4-44.8-185.6-128-230.4-233.6l-364.8 361.6c-22.4-54.4-38.4-115.2-38.4-176 0-246.4 201.6-448 448-448s448 201.6 448 448c-3.2 246.4-201.6 448-448 448zM585.6 166c25.6 60.8 73.6 108.8 134.4 134.4l35.2-169.6-169.6 35.2z" />
<glyph unicode="&#xe906;" glyph-name="meneame" d="M520.286 413.641c-21.724-13.491-43.479-21.135-66.37-25.94-33.574-7.055-67.253-7.055-100.795-0.62-28.979 5.552-52.753 21.198-71.932 42.995-38.011 43.195-65.402 92.016-73.509 149.91-11.114 79.324 16.698 143.58 77.547 193.999 43.658 36.171 95.506 53.699 150.573 63.478 86.401 15.32 168.112-1.483 247.194-35.687 40.598-17.57 79.839-38.348 121.773-52.848 9.253-3.207 18.622-6.099 28.359-7.476 17.57-2.46 31.965 3.491 43.542 16.55 15.12 17.087 20.441 37.643 20.399 60.008 4.248 0.242 5.131-3.081 6.488-5.583 12.902-23.7 9.222-62.258-8.286-82.331-18.317-21.030-42.68-24.773-68.567-21.776-29.421 3.396-57.38 11.987-84.203 24.762-50.398 24.026-101.521 46.202-156.282 58.599-68.557 15.53-136.567 12.797-203.116-9.306-96.894-32.186-147.828-128.46-121.447-227.268 15.215-57.022 47.285-101.931 97.378-133.686 21.671-13.743 45.561-18.054 70.765-17.728 25.509 0.368 50.366 5.342 75.276 10.052 4.311 0.831 8.517 1.903 15.215-0.105zM622.185-72.429c-4.648 1.556-13.333-3.638-14.71 2.85-1.356 6.34 7.707 8.422 12.975 10.631 32.133 13.364 64.53 26.129 96.674 39.473 20.010 8.307 39.536 17.697 57.506 29.957 6.172 4.216 11.85 9.011 16.855 14.595 7.949 8.864 9.863 18.212 5.226 29.852-24.447 61.218-51.744 121.341-73.173 183.779-17.276 50.345-30.977 101.395-34.625 154.936-4.29 63.163 17.581 112.278 72.090 146.083 25.688 15.962 53.279 27.854 80.901 39.799 34.152 14.763 67.958 29.904 97.914 52.785 44.835 34.194 59.556 80.050 55.718 134.149-1.724 24.352-5.794 48.274-11.356 72.006-0.641 2.692-4.301 6.666 0.547 8.748 4.364 1.893 6.687-1.504 8.57-4.963 14.595-26.529 26.003-54.057 29.568-84.539 6.887-58.641-18.769-103.361-59.346-142.056-25.888-24.689-57.674-39.967-89.029-55.897-28.317-14.395-57.548-27.128-84.224-44.615-29.084-19.053-53.184-42.259-61.186-77.684-6.519-28.811-1.23-57.316 4.574-85.528 12.765-62.027 37.885-119.806 62.69-177.628 12.828-29.831 26.497-59.314 36.697-90.154 16.456-49.725 2.723-88.072-41.534-116-31.828-20.062-67.505-28.842-104.097-34.678-21.408-3.396-43.037-4.458-65.224-5.899zM193.841 524.016c-0.789-5.173-3.722-9.106-6.53-13.112-47.317-67.516-87.852-138.701-118.418-215.46-21.293-53.489-26.403-108.114-12.344-164 17.402-69.135 63.436-111.826 128.334-136.924 47.054-18.191 96.106-26.939 145.873-32.796 69.156-8.181 138.586-13.638 207.889-20.367 6.666-0.641 13.259-2.482 19.768-4.237 3.133-0.841 7.182-2.124 6.751-6.361-0.526-4.91-5.068-3.438-8.139-3.691-44.867-3.649-89.797-5.678-134.811-6.351-63.331-0.946-126.883-1.388-189.341 9.137-101.479 17.097-180.13 67.611-218.299 167.291-20.462 53.489-17.886 109.207-1.409 163.527 24.72 81.49 62.122 156.272 123.013 217.51 15.772 15.846 33.542 29.473 50.934 43.479 1.693 1.335 3.26 3.47 6.73 2.355zM366.99 153.073c71.764 11.766 143.391 18.212 215.544 9.579 34.373-4.132 40.903-11.167 41.702-45.834 1.293-54.867-6.372-108.671-21.934-161.308-2.597-8.759-5.815-17.381-11.251-24.868-2.145-2.955-4.532-6.677-8.938-5.131-3.89 1.356-3.365 5.478-3.533 8.769-1.051 23.448 2.786 46.57 4.952 69.808 3.102 33.28 8.675 66.401 5.604 100.112-0.978 10.662-5.867 17.15-15.331 21.692-27.98 13.406-58 17.77-88.335 20.756-37.075 3.607-74.361 3.26-111.51 5.478-2.345 0.137-4.637 0.62-6.971 0.946z" />
<glyph unicode="&#xe907;" glyph-name="baidu" d="M184.32 378.352c111.36 23.936 96 157.12 92.8 186.24-5.44 44.8-58.24 123.2-129.792 116.928-90.112-8-103.168-138.24-103.168-138.24-12.288-60.16 29.056-188.8 140.16-164.928zM391.040 601.584c61.44 0 111.040 70.784 111.040 158.272 0 87.104-49.6 158.144-111.040 158.144s-111.36-70.656-111.36-158.080c0-87.552 49.92-158.336 111.36-158.336zM655.872 591.152c82.24-10.752 134.912 76.992 145.472 143.488 10.88 66.368-42.24 143.552-100.48 156.8-58.24 13.44-130.56-80-137.6-140.8-7.68-74.624 10.88-148.928 92.8-159.488zM981.824 479.472c0 31.808-26.24 127.68-124.16 127.68s-111.424-90.432-111.424-154.432c0-60.8 5.12-145.92 127.36-143.36 121.856 3.2 108.544 138.24 108.544 170.24zM857.6 200.56s-127.232 98.56-201.472 204.8c-100.8 156.8-243.84 92.992-291.584 13.44-47.744-80.256-121.984-130.56-132.48-144-10.688-13.12-153.6-90.24-121.856-231.232 31.744-140.8 143.168-138.24 143.168-138.24s81.92-7.936 177.28 13.312c95.36 21.248 177.28-5.12 177.28-5.12s222.080-74.688 283.52 68.928c60.8 143.68-34.56 218.24-34.56 218.24z" />
<glyph unicode="&#xe908;" glyph-name="plus-2" d="M460.8 844.8h51.2v-870.4h-51.2v870.4zM51.2 435.2h870.4v-51.2h-870.4v51.2z" />
<glyph unicode="&#xe909;" glyph-name="plus" d="M213.333 341.333h256v-256c0-23.552 19.115-42.667 42.667-42.667s42.667 19.115 42.667 42.667v256h256c23.552 0 42.667 19.115 42.667 42.667s-19.115 42.667-42.667 42.667h-256v256c0 23.552-19.115 42.667-42.667 42.667s-42.667-19.115-42.667-42.667v-256h-256c-23.552 0-42.667-19.115-42.667-42.667s19.115-42.667 42.667-42.667z" />
<glyph unicode="&#xe90a;" glyph-name="line" d="M826.24 497.52c14.848 0 26.88-12.16 26.88-26.88s-12.032-26.88-26.88-26.88h-74.88v-48h74.88c14.848 0 26.88-12.032 26.88-26.88 0-14.72-12.032-26.88-26.88-26.88h-101.76c-14.72 0-26.752 12.16-26.752 26.88v203.52c0 14.72 12.032 26.88 26.88 26.88h101.76c14.72 0 26.752-12.16 26.752-26.88 0-14.848-12.032-26.88-26.88-26.88h-74.88v-48h74.88zM661.76 368.88c0-11.52-7.424-21.76-18.432-25.472-2.752-0.896-5.632-1.28-8.512-1.28-8.96 0-16.64 3.84-21.76 10.688l-104.256 141.504v-125.44c0-14.72-11.904-26.88-26.88-26.88-14.72 0-26.688 12.16-26.688 26.88v203.52c0 11.52 7.36 21.76 18.304 25.408 2.56 0.96 5.76 1.408 8.32 1.408 8.32 0 16-4.48 21.12-10.88l105.024-142.016v126.080c0 14.72 12.032 26.88 26.88 26.88 14.72 0 26.88-12.16 26.88-26.88v-203.52zM416.768 368.88c0-14.72-12.032-26.88-26.88-26.88-14.72 0-26.752 12.16-26.752 26.88v203.52c0 14.72 12.032 26.88 26.88 26.88 14.72 0 26.752-12.16 26.752-26.88v-203.52zM311.552 342h-101.76c-14.72 0-26.88 12.16-26.88 26.88v203.52c0 14.72 12.16 26.88 26.88 26.88 14.848 0 26.88-12.16 26.88-26.88v-176.64h74.88c14.848 0 26.88-12.032 26.88-26.88 0-14.72-12.032-26.88-26.88-26.88zM1024 478.32c0 229.12-229.76 415.616-512 415.616s-512-186.496-512-415.616c0-205.312 182.144-377.344 428.16-409.92 16.64-3.584 39.36-11.008 45.12-25.216 5.12-12.8 3.392-32.64 1.664-46.080l-7.040-43.52c-1.92-12.8-10.24-50.56 44.8-27.52s295.040 174.080 402.56 297.6c73.536 80.576 108.736 163.136 108.736 254.656z" />
<glyph unicode="&#xe90b;" glyph-name="g2" d="M890.484 593.572h-152.978c4.156 24.032 18.946 37.436 48.99 52.686l28.194 14.33c50.376 25.876 77.178 54.996 77.178 102.602 0 30.040-11.554 53.612-34.66 70.712-22.646 17.1-50.376 25.418-82.264 25.418-25.424 0-48.53-6.466-69.792-19.87-20.796-12.944-36.512-29.58-46.214-50.376l44.368-44.376c17.1 34.666 42.058 51.766 74.874 51.766 27.728 0 44.828-14.33 44.828-34.2 0-16.64-8.318-30.504-40.206-46.68l-18.026-8.782c-39.288-19.87-66.556-42.518-82.272-68.402-15.71-25.418-23.566-58.232-23.566-97.52v-10.628h231.546v63.32zM870.034 457.126h-253.316l-126.66-219.378h253.318l126.658-219.378 126.658 219.378zM511.882 91.498c-161.286 0-292.502 131.216-292.502 292.502s131.216 292.504 292.502 292.504l100.142 209.558c-30.071 6.245-64.629 9.82-100.021 9.82-0.043 0-0.085 0-0.128 0h0.007c-282.704 0-511.882-229.178-511.882-511.882s229.178-511.882 511.882-511.882c112.714 0 216.898 36.46 301.462 98.188l-110.892 192.070c-51.232-44.118-117.814-70.878-190.57-70.878z" />
<glyph unicode="&#xe90c;" glyph-name="hexagon" d="M942.5 141.8v495.8l-429.4 248-429.4-248v-495.8l429.4-247.9z" />
<glyph unicode="&#xe90d;" glyph-name="hexagon-radius2" d="M819.8 65.6c67.2 38.8 122.1 133.9 122.1 211.5v213.8c0 77.5-54.9 172.7-122.1 211.5l-185.2 107c-67.2 38.8-177 38.8-244.2 0l-185.2-107c-67.2-38.8-122.1-134-122.1-211.5v-213.9c0-77.5 55-172.7 122.1-211.5l185.2-106.9c67.2-38.8 177.1-38.8 244.2 0l185.2 107z" />
<glyph unicode="&#xe90e;" glyph-name="bulge-rectangle" d="M929.2-30c-277.5-41.6-554.9-41.6-832.4 0-41.6 277.5-41.6 554.9 0 832.4 277.4 41.6 554.9 41.6 832.4 0 41.6-277.5 41.6-554.9 0-832.4z" />
<glyph unicode="&#xe90f;" glyph-name="hexagon-zigzag" d="M949.7 138.1c4.4 7.7 11.8 13 11.8 21.8 0 8.9-37.7 8.9-37.7 17.7 0 8.9 38.3 8.9 38.3 17.7 0 8.9-32.6 8.9-32.6 17.7 0 8.9-1 8.9-1 17.7 0 8.9-0.2 8.9-0.2 17.7 0 8.9 25.2 8.9 25.2 17.7 0 8.9-30.1 8.9-30.1 17.7 0 8.9 37.2 8.9 37.2 17.7s-33.6 8.9-33.6 17.7c0 8.9 9 8.9 9 17.7 0 8.9 24.6 8.9 24.6 17.7 0 8.9-22.7 8.9-22.7 17.7 0 8.9-13.7 8.9-13.7 17.7 0 8.9 7 8.9 7 17.7 0 8.9-5.3 8.9-5.3 17.7 0 8.9 16.6 8.9 16.6 17.7 0 8.9-8.5 8.9-8.5 17.7 0 8.9 27.8 8.9 27.8 17.7 0 8.9-6.9 8.9-6.9 17.7 0 8.9-28.1 8.9-28.1 17.7 0 8.9-2.9 8.9-2.9 17.7 0 8.9 18.9 8.9 18.9 17.7 0 8.9 0 8.9 0 17.7 0 8.9-3 8.9-3 17.7 0 8.9-14 8.9-14 17.7 0 8.9 33.1 8.9 33.1 17.7 0 8.9-1.7 16-6.1 23.7s-15.1 3.5-22.8 7.9c-7.7 4.4-6.8 5.9-14.5 10.4-7.7 4.4-7.6 4.6-15.2 9-7.7 4.4-20.3-17.4-27.9-13-7.7 4.4-6.9 5.7-14.6 10.1s1.7 20.7-6 25.1c-7.7 4.4-4.9 9.2-12.6 13.6s-21.7-19.9-29.4-15.5c-7.7 4.4-7.1 5.5-14.7 9.9-7.7 4.4 7.8 31.2 0.1 35.7-7.7 4.4-14.8-7.9-22.5-3.5s0.4 18.4-7.3 22.9c-7.7 4.4-9.3 1.5-17 6-7.7 4.4-4.2 10.4-11.9 14.9-7.7 4.4-17.4-12.4-25.1-8s-13.7-6-21.3-1.5c-7.7 4.4-9.8 0.8-17.4 5.2-7.7 4.4 9.2 33.6 1.5 38.1-7.7 4.4-22.4-21.1-30.1-16.7s-1.4 15.2-9.1 19.6c-7.7 4.4-7.8 4.1-15.5 8.6-7.7 4.4 2.1 21.3-5.6 25.8-7.7 4.4-26.2-27.7-33.9-23.3s-3.7 11.2-11.4 15.7c-7.7 4.4 3.3 23.5-4.3 27.9-7.7 4.4-11.7-2.5-19.4 1.9s-11.8-2.7-19.4 1.8c-7.7 4.4-3.8 29-12.7 29s0.9-34.8-6.8-39.2c-7.7-4.4-10.1-0.3-17.7-4.7-7.7-4.4-16.9 11.5-24.5 7-7.7-4.4-9.4-1.5-17-5.9-7.7-4.4-0.6-16.6-8.3-21.1-7.7-4.4-15.3 8.7-22.9 4.3-7.7-4.4-4.5-10-12.1-14.4-7.7-4.4-2.7-13-10.4-17.5-7.7-4.4-18.9 15-26.5 10.5-7.7-4.4 5-26.4-2.7-30.8s-2.5-13.4-10.2-17.8c-7.7-4.4-10-0.5-17.6-4.9-7.7-4.4-13 4.8-20.6 0.3-7.7-4.4-17.2 12.1-24.9 7.7s-1.8-14.6-9.5-19c-7.7-4.4 2.6-22.1-5.1-26.6-7.7-4.4-20.2 17.3-27.9 12.9s-12.7 4.4-20.4-0.1c-7.7-4.4-0.3-17.2-8-21.6s-13.2 5.1-20.9 0.7c-7.7-4.4 3.2-23.2-4.5-27.6s-16.9 11.5-24.6 7.1c-7.7-4.4-7.8-4.2-15.5-8.6s-8.2-3.5-15.9-7.9c-7.7-4.4-6.7-6.1-14.4-10.5s7.6-30.9-0.1-35.3c-7.7-4.4-15.6 9.3-23.3 4.8s-11.5 1.3-15.9-6.3c-4.4-7.7-4.1-8.1-4.1-16.9 0-8.9-3.8-8.9-3.8-17.7 0-8.9 10.1-8.9 10.1-17.7 0-8.9 0.3-8.9 0.3-17.7 0-8.9-15-8.9-15-17.7 0-8.9 30.4-8.9 30.4-17.7 0-8.9-6.8-8.9-6.8-17.7 0-8.9-7.9-8.9-7.9-17.7 0-8.9-18.7-8.9-18.7-17.7 0-8.9 3.2-8.9 3.2-17.7 0-8.9 4.9-8.9 4.9-17.7 0-8.9-12.8-8.9-12.8-17.7 0-8.9 9.2-8.9 9.2-17.7 0-8.9 24.6-8.9 24.6-17.7 0-8.9-30-8.9-30-17.7 0-8.9 0.7-8.9 0.7-17.7 0-8.9-2.3-8.9-2.3-17.7 0-8.9 33.5-8.9 33.5-17.7 0-8.9-15.5-8.9-15.5-17.7 0-8.9 7.2-8.9 7.2-17.7 0-8.9-6.7-8.9-6.7-17.7 0-8.9-3.6-8.9-3.6-17.7 0-8.9 0.8-8.9 0.8-17.7 0-8.9 1.1-8.9 1.1-17.7 0-8.9-5.2-8.9-5.2-17.7 0-8.9-3.4-8.9-3.4-17.7 0-8.9 3.9-8.9 3.9-17.7s-8.4-15-4-22.7c4.4-7.7 20.6 7.9 28.2 3.5 7.7-4.4 13 4.9 20.7 0.5s-2.3-21.7 5.3-26.2c7.7-4.4 1.8-14.5 9.5-19 7.7-4.4 14.9 8.1 22.5 3.6 7.7-4.4 8.8-2.4 16.5-6.8s13.3 5.4 21 0.9c7.7-4.4 1.6-15 9.2-19.4 7.7-4.4 9.2-1.7 16.9-6.1s12.7 4.3 20.4-0.1c7.7-4.4 4.3-10.2 12-14.6s-0.4-18.3 7.3-22.8c7.7-4.4 14.3 7.1 22 2.7s1.7-14.8 9.3-19.3c7.7-4.4 19.5 16.1 27.2 11.7s-7.7-31 0-35.5c7.7-4.4 3.9-11 11.5-15.4 7.7-4.4 21.1 18.9 28.8 14.5s11.5 2.2 19.2-2.2c7.7-4.4 0.8-16.3 8.5-20.7s-0.3-18.2 7.4-22.6c7.7-4.4 8-3.9 15.6-8.3 7.7-4.4 9.8-0.8 17.4-5.2 7.7-4.4 10.1-0.2 17.8-4.6s3.3-12 11-16.4c7.7-4.4 17.6 12.7 25.2 8.3 7.7-4.4-3.8-24.4 3.8-28.8s14.8 8.3 23.6 8.3c8.9 0-2 18.4 5.7 22.8s16.1-10.1 23.7-5.7c7.7 4.4 8.5 3 16.1 7.4 7.7 4.4 5.4 8.4 13 12.9 7.7 4.4 19.4-15.9 27.1-11.5s4.5 9.9 12.2 14.3c7.7 4.4 3.8 11.1 11.5 15.5s6.2 6.9 13.9 11.4c7.7 4.4 16.6-11 24.2-6.6 7.7 4.4-0.7 18.9 7 23.4 7.7 4.4 1.8 14.5 9.5 19 7.7 4.4 17.7-13 25.4-8.6s4 10.9 11.6 15.3c7.7 4.4-1.4 20.2 6.2 24.6 7.7 4.4 13.3-5.4 21-0.9 7.7 4.4 7.6 4.5 15.3 9 7.7 4.4 11.5-2.2 19.2 2.2s13.8-6.1 21.4-1.7c7.7 4.4-5.6 27.4 2.1 31.8s6 7.3 13.7 11.7c7.7 4.4 7.8 4.3 15.4 8.7 7.7 4.4 9.6 1.1 17.3 5.5s10.2 0.1 17.8 4.6c7.7 4.4 3.3 11.9 11 16.3s6 7.3 13.7 11.7c7.7 4.4 13.1-4.9 20.7-0.5 7.7 4.4 8.8 6.9 17.5 8.4 12.5 2.1 19.5-7.7 24 0z" />
<glyph unicode="&#xe910;" glyph-name="arrow-down-1" d="M1024 544l-192 192-320-320-320 320-192-192 512-512z" />
<glyph unicode="&#xe911;" glyph-name="arrow-down-2" d="M1024 544l-128 128-384-384-384 384-128-128 512-512 512 512z" />
<glyph unicode="&#xe912;" glyph-name="arrow-down-3" d="M1024 544l-96 96-416-416-416 416-96-96 512-512 512 512z" />
<glyph unicode="&#xe913;" glyph-name="arrow-down-4" d="M1024 544l-64 64-448-448-448 448-64-64 512-512 512 512z" />
<glyph unicode="&#xe914;" glyph-name="edit" d="M768 352v-352h-640v640h352l128 128h-512c-52.8 0-96-43.2-96-96v-704c0-52.8 43.2-96 96-96h704c52.798 0 96 43.2 96 96v512l-128-128zM864 896l-608-608v-160h160l608 608c0 96-64 160-160 160zM416 256l-48 48 480 480 48-48-480-480z" />
<glyph unicode="&#xe915;" glyph-name="arrow-down-5" d="M224 512l288-288 288 288h-576z" />
<glyph unicode="&#xe916;" glyph-name="arrow-down-7" d="M160 256l352-352 352 352h-288v576h-128v-576z" />
<glyph unicode="&#xe917;" glyph-name="arrow-left-1" d="M672-128l192 192-320 320 320 320-192 192-512-512z" />
<glyph unicode="&#xe918;" glyph-name="arrow-left-2" d="M672-128l128 128-384 384 384 384-128 128-512-512 512-512z" />
<glyph unicode="&#xe919;" glyph-name="arrow-left-3" d="M672-128l96 96-416 416 416 416-96 96-512-512 512-512z" />
<glyph unicode="&#xe91a;" glyph-name="arrow-left-4" d="M672-128l64 64-448 448 448 448-64 64-512-512 512-512z" />
<glyph unicode="&#xe91b;" glyph-name="arrow-left-18" d="M640 672l-288-288 288-288v576z" />
<glyph unicode="&#xe91c;" glyph-name="arrow-left-17" d="M32 384l480-480v288h512v384h-512v288z" />
<glyph unicode="&#xe91d;" glyph-name="arrow-left-14" d="M384 736l-352-352 352-352v288h576v128h-576z" />
<glyph unicode="&#xe91e;" glyph-name="arrow-left-8" d="M402.752 18.752l-320 320c-25.024 24.96-25.024 65.536 0 90.496l320 320c25.024 25.024 65.536 25.024 90.496 0s25.024-65.536 0-90.496l-210.752-210.752h613.504c35.328 0 64-28.672 64-64s-28.672-64-64-64h-613.504l210.752-210.752c12.48-12.48 18.752-28.864 18.752-45.248s-6.272-32.768-18.752-45.248c-25.024-25.024-65.536-25.024-90.496 0z" />
<glyph unicode="&#xe91f;" glyph-name="arrow-left-9" d="M0 384l512-512v320h512v384h-512v320l-512-512zM448 512h512v-256h-512v-229.504l-357.504 357.504 357.504 357.504v-229.504z" />
<glyph unicode="&#xe920;" glyph-name="arrow-left-10" d="M0 384l512-512v320h512v384h-512v320l-512-512zM152 445.504l16 16v-155.008l-16 16v123.008zM136 338.496l-16 16v59.008l16 16v-91.008zM184 477.504l16 16v-219.008l-16 16v187.008zM216 509.504l16 16v-283.008l-16 16v251.008zM248 541.504l16 16v-347.008l-16 16v315.008zM280 573.504l16 16v-411.008l-16 16v379.008zM312 605.504l16 16v-475.008l-16 16v443.008zM344 637.504l16 16v-539.008l-16 16v507.008zM376 669.504l16 16v-603.008l-16 16v571.008zM408 701.504l16 16v-667.008l-16 16v635.008zM104 397.504v-27.008l-13.504 13.504 13.504 13.504zM472 256v256h16v-256h-16zM504 256v256h16v-256h-16zM536 256v256h16v-256h-16zM568 256v256h16v-256h-16zM600 256v256h16v-256h-16zM632 256v256h16v-256h-16zM664 256v256h16v-256h-16zM696 256v256h16v-256h-16zM728 256v256h16v-256h-16zM760 256v256h16v-256h-16zM792 256v256h16v-256h-16zM824 256v256h16v-256h-16zM856 256v256h16v-256h-16zM888 256v256h16v-256h-16zM920 256v256h16v-256h-16zM960 256h-8v256h8v-256zM448 512h8v-256h-8v-229.504l-8 8v699.008l8 8v-229.504z" />
<glyph unicode="&#xe921;" glyph-name="arrow-left-11" d="M0 352l384 384v-256l640-96v-64l-640-96v-256z" />
<glyph unicode="&#xe922;" glyph-name="arrow-left-13" d="M448 896l-448-512 448-512v372.48l576-116.48v512l-576-116.48v372.48zM960 564.48v-360.896l-576 116.48v-277.696l-298.944 341.632 298.944 341.696v-277.696l576 116.48z" />
<glyph unicode="&#xe923;" glyph-name="arrow-left-15" d="M768 896l-512-512 512-512-256 512z" />
<glyph unicode="&#xe924;" glyph-name="arrow-left-16" d="M960 576h64v-384h-64zM832 576h64v-384h-64zM704 576h64v-384h-64zM0 384l448 448v-256h192v-384h-192v-256z" />
<glyph unicode="&#xe925;" glyph-name="arrow-right-1" d="M352 896l-192-192 320-320-320-320 192-192 512 512z" />
<glyph unicode="&#xe926;" glyph-name="arrow-right-2" d="M352 896l-128-128 384-384-384-384 128-128 512 512-512 512z" />
<glyph unicode="&#xe927;" glyph-name="arrow-right-3" d="M352 896l-96-96 416-416-416-416 96-96 512 512-512 512z" />
<glyph unicode="&#xe928;" glyph-name="arrow-right-4" d="M352 896l-64-64 448-448-448-448 64-64 512 512-512 512z" />
<glyph unicode="&#xe929;" glyph-name="arrow-right-18" d="M384 96l288 288-288 288v-576z" />
<glyph unicode="&#xe92a;" glyph-name="arrow-right-17" d="M992 384l-480 480v-288h-512v-384h512v-288z" />
<glyph unicode="&#xe92b;" glyph-name="arrow-right-14" d="M640 32l352 352-352 352v-288h-576v-128h576z" />
<glyph unicode="&#xe92c;" glyph-name="arrow-right-8" d="M621.248 18.752l320 320c25.024 24.96 25.024 65.536 0 90.496l-320 320c-25.024 25.024-65.536 25.024-90.496 0s-25.024-65.536 0-90.496l210.752-210.752h-613.504c-35.328 0-64-28.672-64-64s28.672-64 64-64h613.504l-210.752-210.752c-12.48-12.48-18.752-28.864-18.752-45.248s6.272-32.768 18.752-45.248c25.024-25.024 65.536-25.024 90.496 0z" />
<glyph unicode="&#xe92d;" glyph-name="arrow-right-9" d="M1024 384l-512 512v-320h-512v-384h512v-320l512 512zM576 256h-512v256h512v229.504l357.504-357.504-357.504-357.504v229.504z" />
<glyph unicode="&#xe92e;" glyph-name="arrow-right-10" d="M1024 384l-512 512v-320h-512v-384h512v-320l512 512zM872 322.496l-16-16v155.008l16-16v-123.008zM888 429.504l16-16v-59.008l-16-16v91.008zM840 290.496l-16-16v219.008l16-16v-187.008zM808 258.496l-16-16v283.008l16-16v-251.008zM776 226.496l-16-16v347.008l16-16v-315.008zM744 194.496l-16-16v411.008l16-16v-379.008zM712 162.496l-16-16v475.008l16-16v-443.008zM680 130.496l-16-16v539.008l16-16v-507.008zM648 98.496l-16-16v603.008l16-16v-571.008zM616 66.496l-16-16v667.008l16-16v-635.008zM920 370.496v27.008l13.504-13.504-13.504-13.504zM552 512v-256h-16v256h16zM520 512v-256h-16v256h16zM488 512v-256h-16v256h16zM456 512v-256h-16v256h16zM424 512v-256h-16v256h16zM392 512v-256h-16v256h16zM360 512v-256h-16v256h16zM328 512v-256h-16v256h16zM296 512v-256h-16v256h16zM264 512v-256h-16v256h16zM232 512v-256h-16v256h16zM200 512v-256h-16v256h16zM168 512v-256h-16v256h16zM136 512v-256h-16v256h16zM104 512v-256h-16v256h16zM64 512h8v-256h-8v256zM576 256h-8v256h8v229.504l8-8v-699.008l-8-8v229.504z" />
<glyph unicode="&#xe92f;" glyph-name="arrow-right-11" d="M1024 352l-384 384v-256l-640-96v-64l640-96v-256z" />
<glyph unicode="&#xe930;" glyph-name="arrow-right-13" d="M576-128l448 512-448 512v-372.48l-576 116.48v-512l576 116.48v-372.48zM64 203.52v360.896l576-116.48v277.696l298.944-341.696-298.944-341.696v277.696l-576-116.48z" />
<glyph unicode="&#xe931;" glyph-name="arrow-right-15" d="M256-128l512 512-512 512 256-512z" />
<glyph unicode="&#xe932;" glyph-name="arrow-right-16" d="M0 576h64v-384h-64zM128 576h64v-384h-64zM256 576h64v-384h-64zM1024 384l-448 448v-256h-192v-384h192v-256z" />
<glyph unicode="&#xe933;" glyph-name="arrow-up-1" d="M0 224l192-192 320 320 320-320 192 192-512 512z" />
<glyph unicode="&#xe934;" glyph-name="arrow-up-2" d="M0 224l128-128 384 384 384-384 128 128-512 512-512-512z" />
<glyph unicode="&#xe935;" glyph-name="arrow-up-3" d="M0 224l96-96 416 416 416-416 96 96-512 512-512-512z" />
<glyph unicode="&#xe936;" glyph-name="arrow-up-4" d="M0 224l64-64 448 448 448-448 64 64-512 512-512-512z" />
<glyph unicode="&#xe937;" glyph-name="arrow-up-5" d="M800 256l-288 288-288-288h576z" />
<glyph unicode="&#xe938;" glyph-name="arrow-up-7" d="M864 512l-352 352-352-352h288v-576h128v576z" />
<glyph unicode="&#xe939;" glyph-name="arrow-up-8" d="M877.248 493.248l-320 320c-24.96 25.024-65.536 25.024-90.496 0l-320-320c-25.024-25.024-25.024-65.536 0-90.496s65.536-25.024 90.496 0l210.752 210.752v-613.504c0-35.328 28.672-64 64-64s64 28.672 64 64v613.504l210.752-210.752c12.48-12.48 28.864-18.752 45.248-18.752s32.768 6.272 45.248 18.752c25.024 25.024 25.024 65.536 0 90.496z" />
<glyph unicode="&#xe93a;" glyph-name="arrow-left-circle-4" d="M512-128c282.752 0 512 229.248 512 512s-229.248 512-512 512-512-229.248-512-512 229.248-512 512-512zM512 800c229.76 0 416-186.24 416-416s-186.24-416-416-416-416 186.24-416 416 186.24 416 416 416zM669.248 578.752l-90.496 90.496-285.248-285.248 285.248-285.248 90.496 90.496-194.752 194.752z" />
<glyph unicode="&#xe93b;" glyph-name="arrow-left-circle-1" d="M512-128c282.752 0 512 229.248 512 512s-229.248 512-512 512c-282.752 0-512-229.248-512-512s229.248-512 512-512zM512 800c229.76 0 416-186.24 416-416s-186.24-416-416-416c-229.76 0-416 186.24-416 416s186.24 416 416 416zM480 640l-256-256 256-256 96 96-96 96h288v128h-288l96 96z" />
<glyph unicode="&#xe93c;" glyph-name="arrow-left-circle-2" d="M512 896c282.752 0 512-229.248 512-512s-229.248-512-512-512-512 229.248-512 512 229.248 512 512 512zM448 160v160h320v128h-320v160l-224-224 224-224z" />
<glyph unicode="&#xe93d;" glyph-name="arrow-left-circle-3" d="M512 896c282.752 0 512-229.248 512-512s-229.248-512-512-512-512 229.248-512 512 229.248 512 512 512zM512 0c212.096 0 384 171.904 384 384s-171.904 384-384 384c-212.096 0-384-171.904-384-384s171.904-384 384-384zM448 160v160h320v128h-320v160l-224-224z" />
<glyph unicode="&#xe93e;" glyph-name="arrow-right-circle-4" d="M512 896c-282.752 0-512-229.248-512-512s229.248-512 512-512 512 229.248 512 512-229.248 512-512 512zM512-32c-229.76 0-416 186.24-416 416s186.24 416 416 416 416-186.24 416-416-186.24-416-416-416zM354.752 189.248l90.496-90.496 285.248 285.248-285.248 285.248-90.496-90.496 194.752-194.752z" />
<glyph unicode="&#xe93f;" glyph-name="arrow-right-circle-1" d="M512 896c-282.752 0-512-229.248-512-512s229.248-512 512-512 512 229.248 512 512-229.248 512-512 512zM512-32c-229.76 0-416 186.24-416 416s186.24 416 416 416 416-186.24 416-416-186.24-416-416-416zM544 128l256 256-256 256-96-96 96-96h-288v-128h288l-96-96z" />
<glyph unicode="&#xe940;" glyph-name="arrow-right-circle-2" d="M512 896c-282.752 0-512-229.248-512-512s229.248-512 512-512 512 229.248 512 512-229.248 512-512 512zM576 160v160h-320v128h320v160l224-224-224-224z" />
<glyph unicode="&#xe941;" glyph-name="arrow-right-circle-3" d="M512 896c-282.752 0-512-229.248-512-512s229.248-512 512-512 512 229.248 512 512-229.248 512-512 512zM512 0c-212.096 0-384 171.904-384 384s171.904 384 384 384c212.096 0 384-171.904 384-384s-171.904-384-384-384zM576 160v160h-320v128h320v160l224-224z" />
<glyph unicode="&#xe942;" glyph-name="arrow-right-square-1" d="M1024 896h-1024v-1024h1024v1024zM128 0v768h768v-768h-768zM512 672l288-288-288-288v224h-320v128h320z" />
<glyph unicode="&#xe943;" glyph-name="arrow-left-5" d="M716.8-128c6.554 0 13.107 2.509 18.125 7.475 9.984 9.984 9.984 26.214 0 36.198l-442.675 442.675 442.675 442.675c9.984 9.984 9.984 26.214 0 36.198s-26.214 9.984-36.198 0l-460.8-460.8c-9.984-9.984-9.984-26.214 0-36.198l460.8-460.8c5.018-5.018 11.571-7.475 18.125-7.475z" />
<glyph unicode="&#xe944;" glyph-name="arrow-right-5" d="M256-128c-6.554 0-13.107 2.509-18.125 7.475-9.984 9.984-9.984 26.214 0 36.198l442.675 442.675-442.675 442.675c-9.984 9.984-9.984 26.214 0 36.198s26.214 9.984 36.198 0l460.8-460.8c9.984-9.984 9.984-26.214 0-36.198l-460.8-460.8c-5.018-5.018-11.571-7.475-18.125-7.475z" />
<glyph unicode="&#xe945;" glyph-name="arrow-left-6" d="M33.075 376.525l307.2 307.2c9.984 9.984 26.214 9.984 36.198 0s9.984-26.214 0-36.198l-263.475-263.475h834.202c14.131 0 25.6-11.469 25.6-25.6s-11.469-25.6-25.6-25.6h-834.202l263.475-263.475c9.984-9.984 9.984-26.214 0-36.198-5.018-5.018-11.571-7.475-18.125-7.475s-13.107 2.509-18.125 7.475l-307.2 307.2c-9.984 9.984-9.984 26.214 0 36.198z" />
<glyph unicode="&#xe946;" glyph-name="arrow-right-6" d="M990.925 376.525l-307.2 307.2c-9.984 9.984-26.214 9.984-36.198 0s-9.984-26.214 0-36.198l263.475-263.475h-834.202c-14.131 0-25.6-11.469-25.6-25.6s11.469-25.6 25.6-25.6h834.202l-263.475-263.475c-9.984-9.984-9.984-26.214 0-36.198 5.018-5.018 11.571-7.475 18.125-7.475s13.107 2.509 18.125 7.475l307.2 307.2c9.984 9.984 9.984 26.214 0 36.198z" />
<glyph unicode="&#xe947;" glyph-name="arrow-down-8" d="M877.248 274.752l-320-320c-24.96-25.024-65.536-25.024-90.496 0l-320 320c-25.024 25.024-25.024 65.536 0 90.496s65.536 25.024 90.496 0l210.752-210.752v613.504c0 35.328 28.672 64 64 64s64-28.672 64-64v-613.504l210.752 210.752c12.48 12.48 28.864 18.752 45.248 18.752s32.768-6.272 45.248-18.752c25.024-25.024 25.024-65.536 0-90.496z" />
<glyph unicode="&#xe948;" glyph-name="arrow-left-square-1" d="M0-128h1024v1024h-1024v-1024zM896 768v-768h-768v768h768zM512 96l-288 288 288 288v-224h320v-128h-320z" />
<glyph unicode="&#xe949;" glyph-name="arrow-left-7" d="M30.72 378.88l215.040 209.92c10.24 10.24 25.6 10.24 35.84 0s10.24-25.6 0-35.84l-168.96-168.96h834.56c15.36 0 25.6-10.24 25.6-25.6s-10.24-25.6-25.6-25.6h-834.56l168.96-168.96c10.24-10.24 10.24-25.6 0-35.84-5.12-5.12-10.24-5.12-20.48-5.12s-15.36 0-20.48 5.12l-209.92 209.92c-5.12 10.24-5.12 30.72 0 40.96v0z" />
<glyph unicode="&#xe94a;" glyph-name="arrow-right-7" d="M967.68 378.88c10.24-10.24 10.24-25.6 0-35.84l-215.040-215.040c-5.12-5.12-10.24-5.12-20.48-5.12s-15.36 0-20.48 5.12c-10.24 10.24-10.24 25.6 0 35.84l168.96 168.96h-829.44c-15.36 0-25.6 10.24-25.6 25.6s10.24 25.6 25.6 25.6h834.56l-168.96 168.96c-10.24 10.24-10.24 25.6 0 35.84s25.6 10.24 35.84 0l215.040-209.92z" />
<glyph unicode="&#xe94b;" glyph-name="arrow-left-12" d="M522.24 566.272c0-19.456 15.36-34.816 34.816-34.816s34.816 15.36 34.816 34.816c0 19.456-15.36 34.816-34.816 34.816s-34.816-15.36-34.816-34.816zM522.24 384c0-19.456 15.36-34.816 34.816-34.816s34.816 15.36 34.816 34.816c0 19.456-15.36 34.816-34.816 34.816s-34.816-15.36-34.816-34.816zM522.24 293.888c0-19.456 15.36-34.816 34.816-34.816s34.816 15.36 34.816 34.816c0 18.432-15.36 33.792-34.816 33.792s-34.816-15.36-34.816-33.792zM522.24 201.728c0-18.432 15.36-33.792 34.816-33.792s34.816 15.36 34.816 33.792c0 19.456-15.36 34.816-34.816 34.816s-34.816-15.36-34.816-34.816zM432.128 293.888c0-19.456 15.36-34.816 33.792-34.816 19.456 0 34.816 15.36 34.816 34.816 0 18.432-15.36 33.792-34.816 33.792-18.432 0-33.792-15.36-33.792-33.792zM432.128 475.136c0-18.432 15.36-34.816 33.792-34.816 19.456 0 34.816 16.384 34.816 34.816s-15.36 33.792-34.816 33.792c-18.432 0-33.792-15.36-33.792-33.792zM613.376 111.616c0-19.456 15.36-34.816 34.816-34.816 18.432 0 34.816 15.36 34.816 34.816s-16.384 34.816-34.816 34.816c-19.456 0-34.816-15.36-34.816-34.816zM340.992 384c0-19.456 15.36-34.816 34.816-34.816 18.432 0 34.816 15.36 34.816 34.816s-16.384 34.816-34.816 34.816c-19.456 0-34.816-15.36-34.816-34.816zM432.128 384c0-19.456 15.36-34.816 33.792-34.816 19.456 0 34.816 15.36 34.816 34.816s-15.36 34.816-34.816 34.816c-18.432 0-33.792-15.36-33.792-34.816zM522.24 475.136c0-18.432 15.36-34.816 34.816-34.816s34.816 16.384 34.816 34.816c0 18.432-15.36 33.792-34.816 33.792s-34.816-15.36-34.816-33.792zM613.376 656.384c0-18.432 15.36-34.816 34.816-34.816 18.432 0 34.816 15.36 34.816 34.816s-16.384 34.816-34.816 34.816c-19.456 0-34.816-15.36-34.816-34.816zM613.376 201.728c0-18.432 15.36-33.792 34.816-33.792 18.432 0 34.816 15.36 34.816 33.792 0 19.456-16.384 34.816-34.816 34.816-19.456 0-34.816-15.36-34.816-34.816zM613.376 566.272c0-19.456 15.36-34.816 34.816-34.816 18.432 0 34.816 15.36 34.816 34.816s-16.384 34.816-34.816 34.816c-19.456 0-34.816-15.36-34.816-34.816zM613.376 384c0-19.456 15.36-34.816 34.816-34.816 18.432 0 34.816 15.36 34.816 34.816s-16.384 34.816-34.816 34.816c-19.456 0-34.816-15.36-34.816-34.816zM613.376 475.136c0-18.432 15.36-34.816 34.816-34.816 18.432 0 34.816 16.384 34.816 34.816s-16.384 33.792-34.816 33.792c-19.456 0-34.816-15.36-34.816-33.792zM613.376 293.888c0-19.456 15.36-34.816 34.816-34.816 18.432 0 34.816 15.36 34.816 34.816 0 18.432-16.384 33.792-34.816 33.792-19.456 0-34.816-15.36-34.816-33.792z" />
<glyph unicode="&#xe94c;" glyph-name="arrow-right-12" d="M501.76 566.272c0-19.456-15.36-34.816-34.816-34.816s-34.816 15.36-34.816 34.816c0 19.456 15.36 34.816 34.816 34.816s34.816-15.36 34.816-34.816zM501.76 384c0-19.456-15.36-34.816-34.816-34.816s-34.816 15.36-34.816 34.816c0 19.456 15.36 34.816 34.816 34.816s34.816-15.36 34.816-34.816zM501.76 293.888c0-19.456-15.36-34.816-34.816-34.816s-34.816 15.36-34.816 34.816c0 18.432 15.36 33.792 34.816 33.792s34.816-15.36 34.816-33.792zM501.76 201.728c0-18.432-15.36-33.792-34.816-33.792s-34.816 15.36-34.816 33.792c0 19.456 15.36 34.816 34.816 34.816s34.816-15.36 34.816-34.816zM591.872 293.888c0-19.456-15.36-34.816-33.792-34.816-19.456 0-34.816 15.36-34.816 34.816 0 18.432 15.36 33.792 34.816 33.792 18.432 0 33.792-15.36 33.792-33.792zM591.872 475.136c0-18.432-15.36-34.816-33.792-34.816-19.456 0-34.816 16.384-34.816 34.816s15.36 33.792 34.816 33.792c18.432 0 33.792-15.36 33.792-33.792zM410.624 111.616c0-19.456-15.36-34.816-34.816-34.816-18.432 0-34.816 15.36-34.816 34.816s16.384 34.816 34.816 34.816c19.456 0 34.816-15.36 34.816-34.816zM683.008 384c0-19.456-15.36-34.816-34.816-34.816-18.432 0-34.816 15.36-34.816 34.816s16.384 34.816 34.816 34.816c19.456 0 34.816-15.36 34.816-34.816zM591.872 384c0-19.456-15.36-34.816-33.792-34.816-19.456 0-34.816 15.36-34.816 34.816s15.36 34.816 34.816 34.816c18.432 0 33.792-15.36 33.792-34.816zM501.76 475.136c0-18.432-15.36-34.816-34.816-34.816s-34.816 16.384-34.816 34.816c0 18.432 15.36 33.792 34.816 33.792s34.816-15.36 34.816-33.792zM410.624 656.384c0-18.432-15.36-34.816-34.816-34.816-18.432 0-34.816 15.36-34.816 34.816s16.384 34.816 34.816 34.816c19.456 0 34.816-15.36 34.816-34.816zM410.624 201.728c0-18.432-15.36-33.792-34.816-33.792-18.432 0-34.816 15.36-34.816 33.792 0 19.456 16.384 34.816 34.816 34.816 19.456 0 34.816-15.36 34.816-34.816zM410.624 566.272c0-19.456-15.36-34.816-34.816-34.816-18.432 0-34.816 15.36-34.816 34.816s16.384 34.816 34.816 34.816c19.456 0 34.816-15.36 34.816-34.816zM410.624 384c0-19.456-15.36-34.816-34.816-34.816-18.432 0-34.816 15.36-34.816 34.816s16.384 34.816 34.816 34.816c19.456 0 34.816-15.36 34.816-34.816zM410.624 475.136c0-18.432-15.36-34.816-34.816-34.816-18.432 0-34.816 16.384-34.816 34.816s16.384 33.792 34.816 33.792c19.456 0 34.816-15.36 34.816-33.792zM410.624 293.888c0-19.456-15.36-34.816-34.816-34.816-18.432 0-34.816 15.36-34.816 34.816 0 18.432 16.384 33.792 34.816 33.792 19.456 0 34.816-15.36 34.816-33.792z" />
<glyph unicode="&#xe94d;" glyph-name="product-description" d="M749.568 793.6h-475.136c-28.672 0-51.2-22.528-51.2-51.2v-716.8c0-28.672 22.528-51.2 51.2-51.2h326.656c8.192 0 16.384 3.072 21.504 9.216l168.96 168.96c6.144 6.144 9.216 13.312 9.216 21.504v568.32c0 28.672-23.552 51.2-51.2 51.2zM780.288 174.080c0-3.072-1.024-5.12-3.072-7.168l-157.696-157.696v124.928c0 11.264 9.216 20.48 20.48 20.48h77.824c6.144 0 10.24 4.096 10.24 10.24s-4.096 10.24-10.24 10.24h-77.824c-22.528 0-40.96-18.432-40.96-40.96v-139.264h-324.608c-17.408 0-30.72 13.312-30.72 30.72v716.8c0 17.408 13.312 30.72 30.72 30.72h475.136c17.408 0 30.72-13.312 30.72-30.72v-568.32zM406.528 425.984l90.112-52.224c5.12-3.072 10.24-4.096 15.36-4.096s10.24 1.024 15.36 4.096l90.112 52.224c9.216 5.12 15.36 15.36 15.36 26.624v103.424c0 11.264-6.144 21.504-15.36 26.624l-90.112 52.224c-9.216 5.12-21.504 5.12-30.72 0l-90.112-52.224c-9.216-5.12-15.36-15.36-15.36-26.624v-103.424c0-11.264 6.144-21.504 15.36-26.624zM601.088 568.32l-89.088-51.2-34.816 20.48 89.088 52.224 34.816-21.504zM506.88 616.448c2.048 1.024 3.072 1.024 5.12 1.024s3.072 0 5.12-1.024l28.672-16.384-89.088-52.224-33.792 20.48 83.968 48.128zM411.648 549.888l90.112-51.2v-58.368c0-6.144 4.096-10.24 10.24-10.24s10.24 4.096 10.24 10.24v58.368l90.112 51.2v-97.28c0-4.096-2.048-7.168-5.12-9.216l-90.112-52.224c-3.072-2.048-7.168-2.048-10.24 0l-90.112 52.224c-3.072 2.048-5.12 5.12-5.12 9.216v97.28zM667.648 331.776h-311.296c-6.144 0-11.264-5.12-11.264-11.264s5.12-11.264 11.264-11.264h311.296c6.144 0 11.264 5.12 11.264 11.264s-5.12 11.264-11.264 11.264zM667.648 277.504h-311.296c-6.144 0-11.264-4.096-11.264-11.264 0-6.144 5.12-11.264 11.264-11.264h311.296c6.144 0 11.264 5.12 11.264 11.264s-5.12 11.264-11.264 11.264zM667.648 223.232h-311.296c-6.144 0-11.264-4.096-11.264-11.264 0-6.144 5.12-11.264 11.264-11.264h311.296c6.144 0 11.264 5.12 11.264 11.264s-5.12 11.264-11.264 11.264zM570.368 168.96h-214.016c-6.144 0-11.264-4.096-11.264-11.264 0-6.144 5.12-11.264 11.264-11.264h214.016c6.144 0 11.264 5.12 11.264 11.264s-5.12 11.264-11.264 11.264zM404.48 695.296h214.016c6.144 0 11.264 5.12 11.264 11.264s-5.12 11.264-11.264 11.264h-214.016c-6.144 0-11.264-4.096-11.264-11.264 0-6.144 5.12-11.264 11.264-11.264z" />
<glyph unicode="&#xe94e;" glyph-name="product-images" d="M142.336 76.8c-20.48 0-36.864 15.36-36.864 36.864v541.696c0 20.48 15.36 36.864 36.864 36.864h740.352c20.48 0 36.864-15.36 36.864-36.864v-541.696c0-20.48-15.36-36.864-36.864-36.864h-740.352zM392.192 486.4c-4.096 0-8.192-2.048-11.264-5.12l-254.976-254.976v-113.664c0-9.216 7.168-16.384 16.384-16.384h740.352c9.216 0 16.384 7.168 16.384 16.384v97.28l-190.464 188.416c-3.072 3.072-7.168 5.12-11.264 5.12s-8.192-2.048-11.264-5.12l-86.016-86.016 68.608-68.608c2.048-2.048 3.072-4.096 3.072-7.168s-1.024-5.12-3.072-7.168-4.096-3.072-7.168-3.072c-3.072 0-5.12 1.024-7.168 3.072l-250.88 251.904c-3.072 3.072-7.168 5.12-11.264 5.12zM697.344 424.96c9.216 0 19.456-4.096 25.6-11.264l174.080-174.080v415.744c0 9.216-7.168 16.384-16.384 16.384h-738.304c-9.216 0-16.384-7.168-16.384-16.384v-398.336l241.664 239.616c6.144 7.168 15.36 11.264 24.576 11.264s19.456-4.096 25.6-11.264l168.96-168.96 84.992 84.992c7.168 8.192 16.384 12.288 25.6 12.288zM576.512 487.424c-32.768 0-57.344 24.576-57.344 57.344 0 31.744 25.6 57.344 57.344 57.344 32.768 0 57.344-24.576 57.344-57.344 1.024-31.744-25.6-57.344-57.344-57.344zM576.512 581.632c-20.48 0-37.888-17.408-37.888-37.888s17.408-37.888 37.888-37.888c20.48 0 37.888 17.408 37.888 37.888s-17.408 37.888-37.888 37.888z" />
<glyph unicode="&#xe94f;" glyph-name="product-price" d="M508.928-22.528l-300.032 67.584c-5.12 1.024-8.192 5.12-8.192 10.24v300.032l-72.704 17.408v1.024c-2.048 1.024-4.096 2.048-5.12 3.072-2.048 3.072-3.072 6.144-3.072 8.192 0 3.072 1.024 5.12 4.096 7.168l72.704 60.416-71.68 60.416c-2.048 2.048-3.072 4.096-4.096 7.168 0 2.048 0 5.12 2.048 8.192 1.024 2.048 3.072 4.096 6.144 4.096l215.040 48.128-1.024 3.072c-5.12 23.552-5.12 48.128 0 70.656 17.408 79.872 89.088 137.216 171.008 137.216 12.288 0 24.576-1.024 36.864-4.096 46.080-10.24 84.992-36.864 109.568-75.776 25.6-38.912 33.792-86.016 23.552-131.072l-1.024-3.072 200.704-46.080c2.048-1.024 4.096-2.048 5.12-3.072 2.048-2.048 3.072-4.096 3.072-7.168s-1.024-5.12-3.072-7.168l-60.416-60.416 71.68-61.44c2.048-1.024 3.072-3.072 4.096-5.12 0-3.072 0-6.144-2.048-8.192-1.024-2.048-3.072-3.072-6.144-4.096l-72.704-17.408v-302.080c0-5.12-3.072-9.216-8.192-10.24l-300.032-67.584h-6.144zM522.24 1.024l276.48 62.464v5.12l2.048-2.048v285.696l-205.824-47.104h-2.048c-4.096 0-5.12 0-7.168 2.048l-63.488 54.272v-360.448zM221.184 64.512l279.552-63.488v360.448l-64.512-54.272c-2.048-1.024-5.12-2.048-7.168-2.048h-3.072l-200.704 46.080h-5.12v-286.72zM536.576 377.856l61.44-51.2 274.432 62.464-61.44 51.2-274.432-62.464zM153.6 390.144l274.432-62.464 61.44 51.2-274.432 62.464-61.44-51.2zM272.384 454.656v-6.144l239.616-53.248 236.544 53.248v6.144l-125.952 27.648-1.024-1.024c-30.72-25.6-69.632-38.912-108.544-38.912-40.96 0-80.896 14.336-112.64 41.984l-1.024 1.024-126.976-30.72zM512 770.048c-13.312 0-25.6-2.048-40.96-6.144-39.936-11.264-72.704-36.864-92.16-72.704-20.48-35.84-24.576-76.8-13.312-115.712 1.024-6.144 4.096-13.312 6.144-19.456l3.072-6.144c5.12-10.24 11.264-20.48 19.456-29.696 4.096-5.12 9.216-10.24 14.336-15.36 28.672-26.624 65.536-40.96 103.424-40.96 84.992 0 153.6 68.608 153.6 153.6 0 82.944-68.608 152.576-153.6 152.576zM668.672 540.672c-1.024-1.024-1.024-2.048-1.024-2.048 0-1.024 0-1.024-1.024-1.024l-4.096-8.192c0 0-1.024-1.024-1.024-2.048s0-1.024-1.024-1.024c-1.024-2.048-2.048-3.072-3.072-4.096s-2.048-3.072-3.072-4.096c0 0-1.024-1.024-1.024-2.048s0-1.024-1.024-1.024v-2.048c-1.024-3.072-3.072-5.12-6.144-8.192h-1.024v-1.024l-4.096-4.096 5.12-2.048 161.792-33.792 51.2 50.176-186.368 41.984v-5.12c0-1.024-1.024-3.072-2.048-4.096-1.024-2.048-2.048-4.096-2.048-6.144zM153.6 516.096l61.44-51.2 164.864 36.864-10.24 15.36c-1.024 1.024-1.024 2.048-1.024 2.048 0 1.024-1.024 2.048-2.048 3.072 0 1.024-1.024 2.048-2.048 3.072s-2.048 2.048-2.048 3.072c-1.024 1.024-1.024 1.024-1.024 2.048s-1.024 2.048-2.048 3.072l-1.024 3.072-2.048 4.096c-1.024 1.024-2.048 2.048-2.048 3.072v1.024c-1.024 2.048-2.048 6.144-4.096 10.24l-2.048 1.024v2.048l-194.56-41.984zM512 494.592c-6.144 0-11.264 5.12-11.264 11.264v17.408l-2.048 1.024c-22.528 6.144-38.912 26.624-38.912 50.176 0 6.144 5.12 11.264 11.264 11.264s11.264-5.12 11.264-11.264c0-16.384 13.312-29.696 29.696-29.696s29.696 13.312 29.696 29.696-13.312 29.696-29.696 29.696c-23.552 0-44.032 16.384-50.176 38.912-6.144 28.672 10.24 56.32 37.888 63.488l2.048 1.024v17.408c0 6.144 5.12 11.264 11.264 11.264s11.264-5.12 11.264-11.264v-17.408l2.048-1.024c22.528-6.144 38.912-26.624 38.912-50.176 0-6.144-5.12-11.264-11.264-11.264s-11.264 5.12-11.264 11.264c0 16.384-13.312 29.696-29.696 29.696-15.36 0-29.696-14.336-29.696-29.696 0-16.384 13.312-29.696 29.696-29.696 23.552 0 44.032-16.384 50.176-38.912 6.144-28.672-10.24-56.32-37.888-63.488l-2.048-1.024v-17.408c0-6.144-5.12-11.264-11.264-11.264z" />
<glyph unicode="&#xe950;" glyph-name="edd-trendy-carousel" d="M983.040 226.304l-62.464 62.464c-4.096 4.096-10.24 4.096-14.336 0s-4.096-10.24 0-14.336l55.296-55.296-55.296-55.296c-4.096-4.096-4.096-10.24 0-14.336 2.048-2.048 5.12-3.072 7.168-3.072s5.12 1.024 7.168 3.072l62.464 62.464c4.096 4.096 4.096 10.24 0 14.336zM140.288 287.744c-4.096 4.096-10.24 4.096-14.336 0l-62.464-61.44c-4.096-4.096-4.096-10.24 0-14.336l61.44-62.464c2.048-2.048 5.12-3.072 7.168-3.072 3.072 0 5.12 1.024 7.168 3.072 4.096 4.096 4.096 10.24 0 14.336l-54.272 55.296 55.296 54.272c4.096 4.096 4.096 10.24 0 14.336zM349.184 284.672c0-18.432 15.36-32.768 32.768-32.768s32.768 15.36 32.768 32.768-15.36 32.768-32.768 32.768-32.768-14.336-32.768-32.768zM394.24 284.672c0-7.168-6.144-12.288-12.288-12.288s-12.288 6.144-12.288 12.288 6.144 12.288 12.288 12.288 12.288-5.12 12.288-12.288zM404.48 109.568h-107.52c-17.408 0-32.768-14.336-32.768-32.768s14.336-32.768 32.768-32.768h107.52c17.408 0 32.768 14.336 32.768 32.768s-14.336 32.768-32.768 32.768zM404.48 65.536h-107.52c-6.144 0-12.288 5.12-12.288 12.288s5.12 12.288 12.288 12.288h107.52c6.144 0 12.288-5.12 12.288-12.288s-5.12-12.288-12.288-12.288zM437.248 372.736c0 6.144-4.096 10.24-10.24 10.24h-150.528c-6.144 0-10.24-4.096-10.24-10.24s4.096-10.24 10.24-10.24h149.504c6.144 0 11.264 5.12 11.264 10.24zM726.016 317.44c-18.432 0-32.768-15.36-32.768-32.768s15.36-32.768 32.768-32.768 32.768 15.36 32.768 32.768-14.336 32.768-32.768 32.768zM726.016 272.384c-7.168 0-12.288 6.144-12.288 12.288s6.144 12.288 12.288 12.288 12.288-6.144 12.288-12.288-5.12-12.288-12.288-12.288zM799.744 507.904h-209.92c-20.48 0-36.864-16.384-36.864-36.864v-296.96l-1.024-1.024 1.024-1.024v-151.552c0-20.48 16.384-36.864 36.864-36.864h209.92c20.48 0 36.864 16.384 36.864 36.864v450.56c1.024 20.48-16.384 36.864-36.864 36.864zM817.152 20.48c0-9.216-7.168-16.384-16.384-16.384h-210.944c-9.216 0-16.384 7.168-16.384 16.384v145.408l58.368 61.44c2.048 2.048 4.096 3.072 7.168 3.072v0c2.048 0 5.12-1.024 7.168-3.072l48.128-51.2c5.12-6.144 13.312-9.216 20.48-9.216 8.192 0 15.36 3.072 21.504 8.192l28.672 30.72c4.096 4.096 9.216 3.072 12.288 0l40.96-44.032v-141.312zM817.152 191.488l-25.6 27.648c-11.264 12.288-29.696 12.288-41.984 1.024l-28.672-30.72c-2.048-2.048-4.096-3.072-6.144-3.072s-4.096 1.024-6.144 3.072l-48.128 51.2c-6.144 6.144-13.312 9.216-21.504 9.216v0c-8.192 0-15.36-3.072-21.504-9.216l-44.032-45.056v275.456c0 9.216 7.168 16.384 16.384 16.384h209.92c9.216 0 16.384-7.168 16.384-16.384v-279.552zM748.544 109.568h-107.52c-17.408 0-32.768-14.336-32.768-32.768s14.336-32.768 32.768-32.768h107.52c17.408 0 32.768 14.336 32.768 32.768s-14.336 32.768-32.768 32.768zM748.544 65.536h-107.52c-6.144 0-12.288 5.12-12.288 12.288s5.12 12.288 12.288 12.288h107.52c6.144 0 12.288-5.12 12.288-12.288s-5.12-12.288-12.288-12.288zM771.072 382.976h-149.504c-6.144 0-10.24-4.096-10.24-10.24s4.096-10.24 10.24-10.24h149.504c6.144 0 10.24 4.096 10.24 10.24s-5.12 10.24-10.24 10.24zM455.68 507.904h-59.392c-4.096-7.168-8.192-14.336-13.312-20.48h72.704c9.216 0 16.384-7.168 16.384-16.384v-279.552l-25.6 27.648c-11.264 12.288-29.696 12.288-41.984 1.024l-28.672-30.72c-2.048-2.048-4.096-3.072-6.144-3.072s-4.096 1.024-6.144 3.072l-48.128 51.2c-6.144 6.144-13.312 9.216-21.504 9.216v0c-8.192 0-15.36-3.072-21.504-9.216l-43.008-46.080v208.896c-3.072 0-7.168-1.024-10.24-1.024s-7.168 0-10.24 1.024v-229.376l-1.024-1.024 1.024-1.024v-151.552c0-20.48 16.384-36.864 36.864-36.864h209.92c20.48 0 36.864 16.384 36.864 36.864v450.56c0 20.48-16.384 36.864-36.864 36.864zM472.064 20.48c0-9.216-7.168-16.384-16.384-16.384h-209.92c-9.216 0-16.384 7.168-16.384 16.384v145.408l58.368 61.44c2.048 2.048 4.096 3.072 7.168 3.072 0 0 0 0 0 0 2.048 0 5.12-1.024 7.168-3.072l48.128-51.2c5.12-6.144 13.312-9.216 20.48-9.216 8.192 0 15.36 3.072 21.504 8.192l28.672 30.72c4.096 4.096 9.216 3.072 12.288 0l40.96-44.032v-141.312zM219.136 424.96c99.328 0 179.2 80.896 179.2 179.2 0 99.328-80.896 179.2-179.2 179.2-99.328 0-179.2-80.896-179.2-179.2s79.872-179.2 179.2-179.2zM219.136 771.072c92.16 0 166.912-74.752 166.912-166.912s-74.752-166.912-166.912-166.912-166.912 74.752-166.912 166.912 74.752 166.912 166.912 166.912zM219.136 455.68c78.848 0 144.384 62.464 148.48 140.288 0 1.024 0 3.072 0 4.096s0 3.072 0 4.096c0 0 0 1.024 0 1.024s0 1.024 0 1.024v2.048c0 0 0 1.024 0 1.024-3.072 79.872-68.608 143.36-148.48 143.36-80.896 0-146.432-63.488-148.48-143.36 0 0 0-1.024 0-1.024v-1.024c0 0 0-1.024 0-1.024s0-1.024 0-1.024 0-3.072 0-4.096c0-1.024 0-3.072 0-4.096 4.096-78.848 68.608-141.312 148.48-141.312zM355.328 605.184c0-7.168-1.024-13.312-2.048-20.48l-63.488 62.464 11.264 11.264 54.272-53.248c0 1.024 0 0 0 0zM219.136 740.352c68.608 0 124.928-50.176 135.168-115.712l-47.104 47.104c-2.048 2.048-6.144 2.048-8.192 0l-20.48-20.48c-1.024-1.024-2.048-3.072-2.048-4.096s1.024-3.072 2.048-4.096l36.864-36.864h-192.512l36.864 36.864c1.024 1.024 2.048 3.072 2.048 4.096s-1.024 3.072-2.048 4.096l-20.48 20.48c-2.048 2.048-6.144 2.048-8.192 0l-47.104-47.104c10.24 65.536 66.56 115.712 135.168 115.712zM81.92 605.184c0 0 0 1.024 0 0l53.248 53.248 11.264-11.264-63.488-62.464c0 7.168 0 13.312-1.024 20.48zM110.592 593.92h216.064l23.552-23.552c-15.36-58.368-68.608-102.4-132.096-102.4s-116.736 43.008-132.096 102.4l24.576 23.552zM215.040 622.592c1.024-1.024 3.072-2.048 4.096-2.048v0c2.048 0 3.072 1.024 4.096 2.048l55.296 59.392c2.048 2.048 2.048 4.096 1.024 6.144s-3.072 4.096-5.12 4.096h-30.72v15.36c0 13.312-11.264 24.576-24.576 24.576s-24.576-11.264-24.576-24.576v-15.36h-30.72c-2.048 0-5.12-1.024-6.144-4.096-1.024-2.048 0-5.12 1.024-7.168l56.32-58.368zM199.68 679.936c3.072 0 6.144 3.072 6.144 6.144v21.504c0 7.168 6.144 12.288 12.288 12.288 7.168 0 12.288-6.144 12.288-12.288v-21.504c0-3.072 3.072-6.144 6.144-6.144h22.528l-40.96-44.032-41.984 44.032h23.552zM223.232 503.808c-3.072 0-5.12-1.024-8.192-1.024s-5.12 0-8.192 0c-2.048 0-5.12 1.024-7.168 2.048s-4.096 2.048-6.144 3.072l-3.072-11.264c2.048-1.024 4.096-2.048 6.144-3.072s5.12-1.024 8.192-2.048c3.072 0 6.144-1.024 9.216-1.024v0-11.264h9.216v12.288c1.024 0 3.072 0 4.096 0 4.096 1.024 7.168 3.072 9.216 5.12s4.096 4.096 6.144 7.168c1.024 3.072 2.048 6.144 2.048 8.192 0 4.096-1.024 7.168-3.072 9.216-1.024 4.096-4.096 6.144-7.168 8.192s-7.168 4.096-12.288 6.144c-4.096 1.024-7.168 3.072-9.216 4.096-3.072 1.024-4.096 3.072-5.12 4.096s-2.048 3.072-2.048 5.12c0 2.048 0 3.072 2.048 4.096 1.024 1.024 3.072 3.072 4.096 3.072 2.048 0 4.096 1.024 8.192 1.024 3.072 0 5.12 0 7.168 0s4.096-1.024 6.144-1.024c2.048 0 3.072-1.024 4.096-2.048l4.096 11.264c-2.048 1.024-5.12 2.048-8.192 3.072-3.072 0-6.144 0-10.24 0v11.264h-9.216v-11.264c-2.048 0-3.072 0-4.096-1.024-4.096-1.024-7.168-2.048-9.216-4.096-3.072-2.048-4.096-4.096-6.144-7.168-1.024-3.072-2.048-5.12-2.048-8.192 0-4.096 1.024-7.168 3.072-9.216 2.048-3.072 4.096-5.12 8.192-7.168 3.072-2.048 7.168-4.096 12.288-5.12 4.096-1.024 6.144-3.072 8.192-4.096s4.096-3.072 5.12-4.096c1.024-2.048 2.048-3.072 2.048-5.12s0-4.096-2.048-5.12c-3.072-2.048-4.096-3.072-6.144-4.096z" />
<glyph unicode="&#xe951;" glyph-name="grid-list" d="M99.097 202.323h825.806v-231.226h-825.806v231.226zM99.097 796.903h825.806v-231.226h-825.806v231.226zM99.097 499.613h825.806v-231.226h-825.806v231.226z" />
<glyph unicode="&#xe952;" glyph-name="grid-2" d="M99.097 796.903h379.871v-231.226h-379.871v231.226zM545.032 796.903h379.871v-231.226h-379.871v231.226zM99.097 202.323h379.871v-231.226h-379.871v231.226zM545.032 202.323h379.871v-231.226h-379.871v231.226zM99.097 499.613h379.871v-231.226h-379.871v231.226zM545.032 499.613h379.871v-231.226h-379.871v231.226z" />
<glyph unicode="&#xe953;" glyph-name="grid-3" d="M99.097 796.903h231.226v-396.387h-231.226v396.387zM693.677 796.903h231.226v-396.387h-231.226v396.387zM396.387 796.903h231.226v-396.387h-231.226v396.387zM99.097 334.452h231.226v-363.355h-231.226v363.355zM693.677 334.452h231.226v-363.355h-231.226v363.355zM396.387 334.452h231.226v-363.355h-231.226v363.355z" />
<glyph unicode="&#xe954;" glyph-name="grid-4" horiz-adv-x="1321" d="M99.097 796.903h231.226v-379.871h-231.226v379.871zM99.097 350.968h231.226v-379.871h-231.226v379.871zM693.677 796.903h231.226v-379.871h-231.226v379.871zM693.677 350.968h231.226v-379.871h-231.226v379.871zM396.387 796.903h231.226v-379.871h-231.226v379.871zM396.387 350.968h231.226v-379.871h-231.226v379.871zM990.968 796.903h231.226v-379.871h-231.226v379.871zM990.968 350.968h231.226v-379.871h-231.226v379.871z" />
<glyph unicode="&#xe955;" glyph-name="grid-5" horiz-adv-x="1619" d="M99.097 796.903h231.226v-379.871h-231.226v379.871zM99.097 350.968h231.226v-379.871h-231.226v379.871zM693.677 796.903h231.226v-379.871h-231.226v379.871zM693.677 350.968h231.226v-379.871h-231.226v379.871zM396.387 796.903h231.226v-379.871h-231.226v379.871zM396.387 350.968h231.226v-379.871h-231.226v379.871zM990.968 796.903h231.226v-379.871h-231.226v379.871zM990.968 350.968h231.226v-379.871h-231.226v379.871zM1288.258 796.903h231.226v-379.871h-231.226v379.871zM1288.258 350.968h231.226v-379.871h-231.226v379.871z" />
<glyph unicode="&#xe956;" glyph-name="grid-6" horiz-adv-x="1916" d="M99.097 796.903h231.226v-379.871h-231.226v379.871zM99.097 350.968h231.226v-379.871h-231.226v379.871zM693.677 796.903h231.226v-379.871h-231.226v379.871zM693.677 350.968h231.226v-379.871h-231.226v379.871zM396.387 796.903h231.226v-379.871h-231.226v379.871zM396.387 350.968h231.226v-379.871h-231.226v379.871zM990.968 796.903h231.226v-379.871h-231.226v379.871zM990.968 350.968h231.226v-379.871h-231.226v379.871zM1585.548 796.903h231.226v-379.871h-231.226v379.871zM1585.548 350.968h231.226v-379.871h-231.226v379.871zM1288.258 796.903h231.226v-379.871h-231.226v379.871zM1288.258 350.968h231.226v-379.871h-231.226v379.871z" />
<glyph unicode="&#xe957;" glyph-name="address" d="M489.472 793.6c-174.080 0-315.392-141.312-315.392-315.392 0-98.304 50.176-211.968 150.528-337.92 72.704-92.16 145.408-156.672 148.48-158.72 5.12-4.096 11.264-6.144 17.408-6.144s12.288 2.048 17.408 6.144c3.072 3.072 74.752 66.56 148.48 158.72 100.352 125.952 150.528 239.616 150.528 337.92-2.048 174.080-143.36 315.392-317.44 315.392zM638.976 152.576c-71.68-91.136-142.336-153.6-145.408-156.672-2.048-1.024-3.072-1.024-4.096-1.024s-2.048 0-3.072 1.024c-3.072 3.072-73.728 65.536-145.408 156.672-97.28 122.88-146.432 232.448-146.432 325.632 0 162.816 132.096 294.912 294.912 294.912s294.912-132.096 294.912-294.912c0-93.184-49.152-202.752-145.408-325.632zM516.096 627.712c-15.36 13.312-37.888 13.312-53.248 0l-166.912-144.384c-4.096-4.096-5.12-10.24-1.024-14.336v0c4.096-4.096 10.24-5.12 14.336-1.024l44.032 37.888v-149.504c0-22.528 18.432-40.96 40.96-40.96h190.464c22.528 0 40.96 18.432 40.96 40.96v151.552l47.104-39.936c4.096-4.096 11.264-3.072 14.336 1.024 4.096 4.096 3.072 11.264-1.024 14.336l-169.984 144.384zM605.184 356.352c0-11.264-9.216-20.48-20.48-20.48h-190.464c-11.264 0-20.48 9.216-20.48 20.48v167.936l102.4 88.064c8.192 6.144 18.432 7.168 26.624 0l102.4-87.040v-168.96z" />
<glyph unicode="&#xe958;" glyph-name="breadcrumb" d="M229.492 369.208h-254.408c-8.876 0-14.792 5.916-14.792 14.792s5.916 14.792 14.792 14.792h252.928c8.876 0 14.792-5.916 14.792-14.792s-5.916-14.792-13.312-14.792zM642.16 369.208h-254.408c-8.876 0-14.792 5.916-14.792 14.792s5.916 14.792 14.792 14.792h252.928c8.876 0 14.792-5.916 14.792-14.792s-5.916-14.792-13.312-14.792zM1050.396 369.208h-254.408c-8.876 0-14.792 5.916-14.792 14.792s5.916 14.792 14.792 14.792h252.928c8.876 0 14.792-5.916 14.792-14.792s-5.916-14.792-13.312-14.792zM685.056 280.464c-1.48 0-2.96 0-5.916 1.48-7.396 2.96-11.832 11.832-8.876 19.228l68.040 177.492c2.96 7.396 11.832 11.832 19.228 8.876s11.832-11.832 8.876-19.228l-68.040-177.492c-1.48-7.396-7.396-10.352-13.312-10.352zM270.904 280.464c-1.48 0-2.96 0-5.916 1.48-7.396 2.96-11.832 11.832-8.876 19.228l68.040 177.492c2.96 7.396 11.832 11.832 19.228 8.876s11.832-11.832 8.876-19.228l-68.040-177.492c-1.48-7.396-7.396-10.352-13.312-10.352z" />
<glyph unicode="&#xe959;" glyph-name="compare" d="M621.568 71.68l-82.944 82.944c-4.096 4.096-10.24 4.096-14.336 0s-4.096-10.24 0-14.336l65.536-65.536h-294.912c-51.2 0-92.16 40.96-92.16 92.16v447.488c45.056 5.12 79.872 43.008 79.872 89.088 0 49.152-39.936 90.112-90.112 90.112s-90.112-40.96-90.112-90.112c0-46.080 34.816-83.968 79.872-89.088v-447.488c0-62.464 50.176-112.64 112.64-112.64h294.912l-65.536-65.536c-4.096-4.096-4.096-10.24 0-14.336s10.24-4.096 14.336 0l82.944 82.944c4.096 4.096 4.096 10.24 0 14.336zM122.88 703.488c0 37.888 30.72 69.632 69.632 69.632s69.632-30.72 69.632-69.632-30.72-69.632-69.632-69.632-69.632 31.744-69.632 69.632zM402.432 696.32l82.944-82.944c4.096-4.096 10.24-4.096 14.336 0s4.096 10.24 0 14.336l-65.536 65.536h294.912c51.2 0 92.16-40.96 92.16-92.16v-447.488c-45.056-5.12-79.872-43.008-79.872-89.088 0-49.152 39.936-90.112 90.112-90.112s90.112 39.936 90.112 90.112c0 46.080-34.816 83.968-79.872 89.088v447.488c0 62.464-50.176 112.64-112.64 112.64h-294.912l65.536 65.536c4.096 4.096 4.096 10.24 0 14.336s-10.24 4.096-14.336 0l-82.944-82.944c-4.096-4.096-4.096-10.24 0-14.336zM901.12 64.512c0-37.888-30.72-69.632-69.632-69.632s-69.632 30.72-69.632 69.632 30.72 69.632 69.632 69.632 69.632-31.744 69.632-69.632z" />
<glyph unicode="&#xe95a;" glyph-name="compare-button" d="M621.568 71.68l-82.944 82.944c-4.096 4.096-10.24 4.096-14.336 0s-4.096-10.24 0-14.336l65.536-65.536h-294.912c-51.2 0-92.16 40.96-92.16 92.16v447.488c45.056 5.12 79.872 43.008 79.872 89.088 0 49.152-39.936 90.112-90.112 90.112s-90.112-40.96-90.112-90.112c0-46.080 34.816-83.968 79.872-89.088v-447.488c0-62.464 50.176-112.64 112.64-112.64h294.912l-65.536-65.536c-4.096-4.096-4.096-10.24 0-14.336s10.24-4.096 14.336 0l82.944 82.944c4.096 4.096 4.096 10.24 0 14.336zM122.88 703.488c0 37.888 30.72 69.632 69.632 69.632s69.632-30.72 69.632-69.632-30.72-69.632-69.632-69.632-69.632 31.744-69.632 69.632zM841.728 153.6v415.744c-6.144-3.072-13.312-6.144-20.48-8.192v-408.576c-45.056-5.12-79.872-43.008-79.872-89.088 0-50.176 39.936-90.112 90.112-90.112s90.112 39.936 90.112 90.112c0 47.104-34.816 84.992-79.872 90.112zM831.488-5.12c-37.888 0-69.632 30.72-69.632 69.632 0 37.888 30.72 69.632 69.632 69.632 37.888 0 69.632-30.72 69.632-69.632s-30.72-69.632-69.632-69.632zM434.176 713.728l65.536 65.536c4.096 4.096 4.096 10.24 0 14.336s-10.24 4.096-14.336 0l-82.944-82.944c-4.096-4.096-4.096-10.24 0-14.336l82.944-82.944c4.096-4.096 10.24-4.096 14.336 0s4.096 10.24 0 14.336l-65.536 65.536h254.976c2.048 7.168 4.096 14.336 8.192 20.48h-263.168zM793.6 793.6c-53.248 0-99.328-32.768-118.784-79.872-3.072-6.144-5.12-13.312-6.144-20.48-2.048-9.216-3.072-18.432-3.072-27.648 0-70.656 57.344-128 128-128 9.216 0 18.432 1.024 27.648 3.072 7.168 2.048 14.336 4.096 20.48 6.144 47.104 19.456 79.872 65.536 79.872 118.784 0 70.656-57.344 128-128 128zM841.728 569.344c-6.144-3.072-13.312-6.144-20.48-8.192-9.216-2.048-18.432-4.096-27.648-4.096-59.392 1.024-107.52 49.152-107.52 108.544 0 9.216 1.024 18.432 3.072 27.648 2.048 7.168 4.096 14.336 8.192 20.48 17.408 35.84 54.272 59.392 96.256 59.392 59.392 0 107.52-48.128 107.52-107.52 0-41.984-23.552-78.848-59.392-96.256zM760.832 633.856c-4.096 3.072-8.192 7.168-10.24 12.288s-4.096 12.288-4.096 19.456c0 7.168 1.024 14.336 4.096 19.456 2.048 5.12 6.144 9.216 10.24 12.288s9.216 4.096 15.36 4.096c6.144 0 11.264-1.024 15.36-4.096s8.192-7.168 10.24-12.288 4.096-12.288 4.096-19.456c0-7.168-1.024-14.336-4.096-19.456-2.048-5.12-6.144-9.216-10.24-12.288s-9.216-4.096-15.36-4.096c-5.12 0-10.24 1.024-15.36 4.096zM786.432 648.192c2.048 4.096 4.096 9.216 4.096 17.408 0 7.168-1.024 13.312-4.096 17.408s-6.144 5.12-10.24 5.12c-4.096 0-7.168-2.048-10.24-5.12-2.048-4.096-4.096-9.216-4.096-17.408 0-7.168 1.024-13.312 4.096-17.408 2.048-4.096 6.144-5.12 10.24-5.12s8.192 2.048 10.24 5.12zM840.704 700.416v-69.632h-16.384v56.32h-14.336v13.312h30.72z" />
<glyph unicode="&#xe95b;" glyph-name="dashboard" d="M460.8 793.6h-327.68c-17.408 0-30.72-13.312-30.72-30.72v-235.52c0-17.408 13.312-30.72 30.72-30.72h327.68c17.408 0 30.72 13.312 30.72 30.72v235.52c0 17.408-13.312 30.72-30.72 30.72zM471.040 527.36c0-6.144-4.096-10.24-10.24-10.24h-327.68c-6.144 0-10.24 4.096-10.24 10.24v235.52c0 6.144 4.096 10.24 10.24 10.24h327.68c6.144 0 10.24-4.096 10.24-10.24v-235.52zM460.8 455.68h-327.68c-17.408 0-30.72-13.312-30.72-30.72v-419.84c0-17.408 13.312-30.72 30.72-30.72h327.68c17.408 0 30.72 13.312 30.72 30.72v419.84c0 17.408-13.312 30.72-30.72 30.72zM471.040 5.12c0-6.144-4.096-10.24-10.24-10.24h-327.68c-6.144 0-10.24 4.096-10.24 10.24v419.84c0 6.144 4.096 10.24 10.24 10.24h327.68c6.144 0 10.24-4.096 10.24-10.24v-419.84zM890.88 271.36h-327.68c-17.408 0-30.72-13.312-30.72-30.72v-235.52c0-17.408 13.312-30.72 30.72-30.72h327.68c17.408 0 30.72 13.312 30.72 30.72v235.52c0 17.408-13.312 30.72-30.72 30.72zM901.12 5.12c0-6.144-4.096-10.24-10.24-10.24h-327.68c-6.144 0-10.24 4.096-10.24 10.24v235.52c0 6.144 4.096 10.24 10.24 10.24h327.68c6.144 0 10.24-4.096 10.24-10.24v-235.52zM890.88 793.6h-327.68c-17.408 0-30.72-13.312-30.72-30.72v-419.84c0-17.408 13.312-30.72 30.72-30.72h327.68c17.408 0 30.72 13.312 30.72 30.72v419.84c0 17.408-13.312 30.72-30.72 30.72zM901.12 343.040c0-6.144-4.096-10.24-10.24-10.24h-327.68c-6.144 0-10.24 4.096-10.24 10.24v419.84c0 6.144 4.096 10.24 10.24 10.24h327.68c6.144 0 10.24-4.096 10.24-10.24v-419.84z" />
<glyph unicode="&#xe95c;" glyph-name="details" d="M870.4 793.6h-443.392c-28.672 0-51.2-22.528-51.2-51.2v-102.4c0-28.672 22.528-51.2 51.2-51.2h443.392c28.672 0 51.2 22.528 51.2 51.2v102.4c0 28.672-22.528 51.2-51.2 51.2zM901.12 640c0-17.408-13.312-30.72-30.72-30.72h-443.392c-17.408 0-30.72 13.312-30.72 30.72v102.4c0 17.408 13.312 30.72 30.72 30.72h443.392c17.408 0 30.72-13.312 30.72-30.72v-102.4zM204.8 588.8c56.32 0 102.4 46.080 102.4 102.4s-46.080 102.4-102.4 102.4-102.4-46.080-102.4-102.4 46.080-102.4 102.4-102.4zM204.8 773.12c45.056 0 81.92-36.864 81.92-81.92s-36.864-81.92-81.92-81.92-81.92 36.864-81.92 81.92 36.864 81.92 81.92 81.92zM427.008 520.192h-273.408c-28.672 0-51.2-22.528-51.2-51.2v-136.192c0-28.672 22.528-51.2 51.2-51.2h273.408c28.672 0 51.2 22.528 51.2 51.2v136.192c0 28.672-23.552 51.2-51.2 51.2zM457.728 332.8c0-17.408-13.312-30.72-30.72-30.72h-273.408c-17.408 0-30.72 13.312-30.72 30.72v136.192c0 17.408 13.312 30.72 30.72 30.72h273.408c17.408 0 30.72-13.312 30.72-30.72v-136.192zM427.008 212.992h-273.408c-28.672 0-51.2-22.528-51.2-51.2v-136.192c0-28.672 22.528-51.2 51.2-51.2h273.408c28.672 0 51.2 22.528 51.2 51.2v136.192c0 28.672-23.552 51.2-51.2 51.2zM457.728 25.6c0-17.408-13.312-30.72-30.72-30.72h-273.408c-17.408 0-30.72 13.312-30.72 30.72v136.192c0 17.408 13.312 30.72 30.72 30.72h273.408c17.408 0 30.72-13.312 30.72-30.72v-136.192zM911.36 489.472h-355.328c-6.144 0-10.24-4.096-10.24-10.24s4.096-10.24 10.24-10.24h355.328c6.144 0 10.24 4.096 10.24 10.24s-4.096 10.24-10.24 10.24zM911.36 332.8h-355.328c-6.144 0-10.24-4.096-10.24-10.24s4.096-10.24 10.24-10.24h355.328c6.144 0 10.24 4.096 10.24 10.24s-4.096 10.24-10.24 10.24zM911.36 411.648h-355.328c-6.144 0-10.24-4.096-10.24-10.24s4.096-10.24 10.24-10.24h355.328c6.144 0 10.24 4.096 10.24 10.24 0 5.12-4.096 10.24-10.24 10.24zM911.36 182.272h-355.328c-6.144 0-10.24-4.096-10.24-10.24s4.096-10.24 10.24-10.24h355.328c6.144 0 10.24 4.096 10.24 10.24s-4.096 10.24-10.24 10.24zM911.36 25.6h-355.328c-6.144 0-10.24-4.096-10.24-10.24s4.096-10.24 10.24-10.24h355.328c6.144 0 10.24 4.096 10.24 10.24s-4.096 10.24-10.24 10.24zM911.36 104.448h-355.328c-6.144 0-10.24-4.096-10.24-10.24s4.096-10.24 10.24-10.24h355.328c6.144 0 10.24 4.096 10.24 10.24 0 5.12-4.096 10.24-10.24 10.24z" />
<glyph unicode="&#xe95d;" glyph-name="filter" d="M876.544 793.6h-729.088c-17.408 0-30.72-13.312-30.72-30.72v-83.968c0-6.144 2.048-13.312 6.144-18.432l261.12-357.376c4.096-5.12 6.144-11.264 6.144-18.432v-209.92l243.712-100.352v311.296c0 6.144 2.048 13.312 6.144 18.432l261.12 357.376c4.096 5.12 6.144 11.264 6.144 18.432v82.944c0 17.408-14.336 30.72-30.72 30.72zM869.376 653.312l-249.856-343.040c-4.096-5.12-6.144-11.264-6.144-18.432v-286.72l-202.752 83.968v202.752c0 6.144-2.048 13.312-6.144 18.432l-249.856 343.040c-5.12 7.168 0 16.384 8.192 16.384h698.368c8.192-1.024 13.312-10.24 8.192-16.384zM886.784 699.392c0-6.144-4.096-10.24-10.24-10.24h-729.088c-6.144 0-10.24 4.096-10.24 10.24v63.488c0 6.144 4.096 10.24 10.24 10.24h728.064c6.144 0 10.24-4.096 10.24-10.24v-63.488zM663.552 634.88c-33.792 0-61.44-27.648-61.44-61.44s27.648-61.44 61.44-61.44 61.44 27.648 61.44 61.44-27.648 61.44-61.44 61.44zM663.552 533.504c-22.528 0-40.96 18.432-40.96 40.96s18.432 40.96 40.96 40.96 40.96-18.432 40.96-40.96-19.456-40.96-40.96-40.96zM517.12 416.768c-20.48 0-37.888-16.384-37.888-37.888s16.384-37.888 37.888-37.888 37.888 16.384 37.888 37.888-17.408 37.888-37.888 37.888zM517.12 361.472c-9.216 0-17.408 7.168-17.408 17.408s7.168 17.408 17.408 17.408 17.408-7.168 17.408-17.408-8.192-17.408-17.408-17.408zM517.12 525.312c0 17.408-14.336 32.768-32.768 32.768s-32.768-14.336-32.768-32.768 14.336-32.768 32.768-32.768 32.768 14.336 32.768 32.768zM473.088 525.312c0 6.144 5.12 12.288 12.288 12.288s12.288-5.12 12.288-12.288c0-6.144-5.12-12.288-12.288-12.288s-12.288 5.12-12.288 12.288zM353.28 636.928c-28.672 0-51.2-22.528-51.2-51.2s22.528-51.2 51.2-51.2c28.672 0 51.2 22.528 51.2 51.2 0 27.648-22.528 51.2-51.2 51.2zM353.28 553.984c-17.408 0-30.72 14.336-30.72 30.72s14.336 30.72 30.72 30.72c17.408 0 30.72-14.336 30.72-30.72s-13.312-30.72-30.72-30.72z" />
<glyph unicode="&#xe95e;" glyph-name="florence-grid" d="M869.376 199.68h-283.648c-29.696 0-52.224 23.552-52.224 52.224v389.12c0 29.696 23.552 52.224 52.224 52.224h283.648c29.696 0 52.224-23.552 52.224-52.224v-388.096c0-28.672-23.552-53.248-52.224-53.248zM585.728 671.744c-17.408 0-31.744-13.312-31.744-31.744v-388.096c0-17.408 13.312-31.744 31.744-31.744h283.648c17.408 0 31.744 13.312 31.744 31.744v389.12c0 17.408-13.312 31.744-31.744 31.744 0-1.024-283.648-1.024-283.648-1.024zM822.272 147.456h-189.44c-6.144 0-10.24 4.096-10.24 10.24v0c0 6.144 4.096 10.24 10.24 10.24h189.44c6.144 0 10.24-4.096 10.24-10.24v0c0-5.12-4.096-10.24-10.24-10.24zM728.064 122.88l2.048-7.168 1.024-1.024h8.192c1.024 0 2.048-1.024 1.024-2.048l-6.144-5.12c0 0-1.024-1.024 0-1.024l2.048-7.168c0-1.024-1.024-2.048-2.048-1.024l-6.144 3.072h-1.024l-6.144-5.12c-1.024-1.024-2.048 0-2.048 1.024l2.048 7.168v1.024l-7.168 6.144c-1.024 1.024 0 2.048 1.024 2.048h7.168c1.024 0 1.024 0 1.024 1.024l2.048 7.168c1.024 2.048 3.072 2.048 3.072 1.024zM762.88 122.88l2.048-7.168 1.024-1.024h8.192c1.024 0 2.048-1.024 1.024-2.048l-6.144-5.12c0 0-1.024-1.024 0-1.024l2.048-7.168c0-1.024-1.024-2.048-2.048-1.024l-7.168 3.072h-1.024l-6.144-5.12c-1.024-1.024-2.048 0-2.048 1.024l2.048 7.168v1.024l-6.144 6.144c-1.024 1.024 0 2.048 1.024 2.048h8.192c1.024 0 1.024 0 1.024 1.024l2.048 7.168c0 2.048 1.024 2.048 2.048 1.024zM797.696 122.88l2.048-7.168 1.024-1.024h8.192c1.024 0 2.048-1.024 1.024-2.048l-6.144-5.12c0 0-1.024-1.024 0-1.024l2.048-7.168c0-1.024-1.024-2.048-2.048-1.024l-7.168 3.072h-1.024l-6.144-5.12c-1.024-1.024-2.048 0-2.048 1.024l2.048 7.168v1.024l-7.168 6.144c-1.024 1.024 0 2.048 1.024 2.048h8.192c1.024 0 1.024 0 1.024 1.024l2.048 7.168c1.024 2.048 2.048 2.048 3.072 1.024zM660.48 122.88l2.048-7.168 1.024-1.024h8.192c1.024 0 2.048-1.024 1.024-2.048l-6.144-5.12c0 0-1.024-1.024 0-1.024l2.048-7.168c0-1.024-1.024-2.048-2.048-1.024l-7.168 3.072h-1.024l-6.144-5.12c-1.024-1.024-2.048 0-2.048 1.024l2.048 7.168v1.024l-7.168 6.144c-1.024 1.024 0 2.048 1.024 2.048h8.192c1.024 0 1.024 0 1.024 1.024l2.048 7.168c1.024 2.048 2.048 2.048 3.072 1.024zM693.248 122.88l2.048-7.168 1.024-1.024h8.192c1.024 0 2.048-1.024 1.024-2.048l-5.12-5.12c0 0-1.024-1.024 0-1.024l2.048-7.168c0-1.024-1.024-2.048-2.048-1.024l-6.144 3.072h-1.024l-7.168-6.144c-1.024-1.024-2.048 0-2.048 1.024l2.048 7.168v1.024l-7.168 6.144c-1.024 1.024 0 2.048 1.024 2.048h8.192c1.024 0 1.024 0 1.024 1.024l2.048 7.168c1.024 3.072 2.048 3.072 2.048 2.048zM869.376 199.68h-283.648c-29.696 0-52.224 23.552-52.224 52.224 0 14.336 6.144 28.672 15.36 37.888l70.656 68.608c19.456 19.456 53.248 19.456 73.728-1.024l10.24-10.24c12.288-12.288 32.768-12.288 44.032 0l39.936 39.936c9.216 9.216 23.552 15.36 36.864 15.36v0c13.312 0 27.648-5.12 36.864-15.36l44.032-44.032c9.216-9.216 15.36-23.552 15.36-36.864v-52.224c1.024-29.696-22.528-54.272-51.2-54.272zM656.384 352.256c-8.192 0-15.36-3.072-22.528-8.192l-70.656-68.608c-6.144-6.144-9.216-13.312-9.216-23.552 0-17.408 13.312-31.744 31.744-31.744h283.648c17.408 0 31.744 13.312 31.744 31.744v52.224c0 8.192-3.072 16.384-9.216 22.528l-44.032 44.032c-6.144 6.144-13.312 9.216-22.528 9.216v0c-8.192 0-16.384-3.072-22.528-9.216l-39.936-39.936c-19.456-19.456-53.248-19.456-74.752 0l-10.24 10.24c-6.144 8.192-13.312 11.264-21.504 11.264zM748.544 404.48c0-11.876-9.628-21.504-21.504-21.504s-21.504 9.628-21.504 21.504c0 11.876 9.628 21.504 21.504 21.504s21.504-9.628 21.504-21.504zM843.776 514.048c-14.336 0-26.624 11.264-26.624 26.624s11.264 26.624 26.624 26.624 26.624-11.264 26.624-26.624-12.288-26.624-26.624-26.624zM843.776 556.032c-8.192 0-15.36-7.168-15.36-15.36s7.168-15.36 15.36-15.36 15.36 7.168 15.36 15.36-7.168 15.36-15.36 15.36zM843.776 440.32c-14.336 0-26.624 11.264-26.624 26.624s11.264 26.624 26.624 26.624 26.624-11.264 26.624-26.624-12.288-26.624-26.624-26.624zM843.776 482.304c-8.192 0-15.36-7.168-15.36-15.36s7.168-15.36 15.36-15.36 15.36 7.168 15.36 15.36-7.168 15.36-15.36 15.36zM589.824 641.024h73.728c3.072 0 5.12-2.048 5.12-5.12v0c0-3.072-2.048-5.12-5.12-5.12h-73.728c-3.072 0-5.12 2.048-5.12 5.12v0c0 3.072 2.048 5.12 5.12 5.12zM589.824 609.28h41.984c3.072 0 5.12-2.048 5.12-5.12v0c0-3.072-2.048-5.12-5.12-5.12h-41.984c-3.072 0-5.12 2.048-5.12 5.12v0c0 3.072 2.048 5.12 5.12 5.12zM438.272 199.68h-283.648c-29.696 0-52.224 23.552-52.224 52.224v389.12c0 29.696 23.552 52.224 52.224 52.224h283.648c29.696 0 52.224-23.552 52.224-52.224v-388.096c0-28.672-22.528-53.248-52.224-53.248zM154.624 671.744c-17.408 0-31.744-13.312-31.744-31.744v-388.096c0-17.408 13.312-31.744 31.744-31.744h283.648c17.408 0 31.744 13.312 31.744 31.744v389.12c0 17.408-13.312 31.744-31.744 31.744 0-1.024-283.648-1.024-283.648-1.024zM391.168 147.456h-189.44c-6.144 0-10.24 4.096-10.24 10.24v0c0 6.144 4.096 10.24 10.24 10.24h189.44c6.144 0 10.24-4.096 10.24-10.24v0c0-5.12-4.096-10.24-10.24-10.24zM297.984 122.88l2.048-7.168 1.024-1.024h8.192c1.024 0 2.048-1.024 1.024-2.048l-6.144-5.12c0 0-1.024-1.024 0-1.024l2.048-7.168c0-1.024-1.024-2.048-2.048-1.024l-6.144 3.072h-1.024l-6.144-5.12c-1.024-1.024-2.048 0-2.048 1.024l2.048 7.168v1.024l-7.168 6.144c-1.024 1.024 0 2.048 1.024 2.048h7.168c1.024 0 1.024 0 1.024 1.024l2.048 7.168c1.024 2.048 3.072 2.048 3.072 1.024zM332.8 122.88l2.048-7.168 1.024-1.024h8.192c1.024 0 2.048-1.024 1.024-2.048l-6.144-5.12c0 0-1.024-1.024 0-1.024l2.048-7.168c0-1.024-1.024-2.048-2.048-1.024l-7.168 3.072h-1.024l-6.144-5.12c-1.024-1.024-2.048 0-2.048 1.024l2.048 7.168v1.024l-7.168 6.144c-1.024 1.024 0 2.048 1.024 2.048h8.192c1.024 0 1.024 0 1.024 1.024l2.048 7.168c1.024 2.048 2.048 2.048 3.072 1.024zM366.592 122.88l2.048-7.168 1.024-1.024h9.216c1.024 0 2.048-1.024 1.024-2.048l-6.144-5.12c0 0-1.024-1.024 0-1.024l2.048-7.168c0-1.024-1.024-2.048-2.048-1.024l-7.168 3.072h-1.024l-7.168-6.144c-1.024-1.024-2.048 0-2.048 1.024l2.048 7.168v1.024l-7.168 6.144c-1.024 1.024 0 2.048 1.024 2.048h8.192c1.024 0 1.024 0 1.024 1.024l2.048 7.168c1.024 3.072 2.048 3.072 3.072 2.048zM229.376 122.88l2.048-7.168 1.024-1.024h8.192c1.024 0 2.048-1.024 1.024-2.048l-6.144-5.12c0 0-1.024-1.024 0-1.024l2.048-7.168c0-1.024-1.024-2.048-2.048-1.024l-7.168 3.072h-1.024l-6.144-5.12c-1.024-1.024-2.048 0-2.048 1.024l2.048 7.168v1.024l-6.144 6.144c-1.024 1.024 0 2.048 1.024 2.048h8.192c1.024 0 1.024 0 1.024 1.024l2.048 7.168c0 2.048 1.024 2.048 2.048 1.024zM263.168 122.88l2.048-7.168 1.024-1.024h8.192c1.024 0 2.048-1.024 1.024-2.048l-6.144-5.12c0 0-1.024-1.024 0-1.024l2.048-7.168c0-1.024-1.024-2.048-2.048-1.024l-6.144 3.072h-1.024l-6.144-6.144c-1.024-1.024-2.048 0-2.048 1.024l2.048 7.168v1.024l-7.168 6.144c-1.024 1.024 0 2.048 1.024 2.048h8.192c1.024 0 1.024 0 1.024 1.024l2.048 7.168c1.024 3.072 2.048 3.072 2.048 2.048zM438.272 199.68h-283.648c-29.696 0-52.224 23.552-52.224 52.224 0 14.336 6.144 28.672 15.36 37.888l70.656 68.608c19.456 19.456 53.248 19.456 73.728-1.024l10.24-10.24c12.288-12.288 32.768-12.288 44.032 0l39.936 39.936c9.216 9.216 23.552 15.36 36.864 15.36v0c13.312 0 27.648-5.12 36.864-15.36l44.032-44.032c9.216-9.216 15.36-23.552 15.36-36.864v-52.224c1.024-29.696-21.504-54.272-51.2-54.272zM225.28 352.256c-8.192 0-15.36-3.072-22.528-8.192l-69.632-68.608c-6.144-6.144-9.216-13.312-9.216-23.552 0-17.408 13.312-31.744 31.744-31.744h283.648c17.408 0 31.744 13.312 31.744 31.744v52.224c0 8.192-3.072 16.384-9.216 22.528l-44.032 44.032c-6.144 6.144-13.312 9.216-22.528 9.216v0c-8.192 0-16.384-3.072-22.528-9.216l-39.936-39.936c-19.456-19.456-53.248-19.456-74.752 0l-10.24 10.24c-7.168 8.192-14.336 11.264-22.528 11.264zM318.464 404.48c0-11.876-9.628-21.504-21.504-21.504s-21.504 9.628-21.504 21.504c0 11.876 9.628 21.504 21.504 21.504s21.504-9.628 21.504-21.504zM412.672 514.048c-14.336 0-26.624 11.264-26.624 26.624s11.264 26.624 26.624 26.624c14.336 0 26.624-11.264 26.624-26.624s-11.264-26.624-26.624-26.624zM412.672 556.032c-8.192 0-15.36-7.168-15.36-15.36s7.168-15.36 15.36-15.36c8.192 0 15.36 7.168 15.36 15.36s-6.144 15.36-15.36 15.36zM412.672 440.32c-14.336 0-26.624 11.264-26.624 26.624s11.264 26.624 26.624 26.624c14.336 0 26.624-11.264 26.624-26.624s-11.264-26.624-26.624-26.624zM412.672 482.304c-8.192 0-15.36-7.168-15.36-15.36s7.168-15.36 15.36-15.36c8.192 0 15.36 7.168 15.36 15.36s-6.144 15.36-15.36 15.36zM159.744 641.024h73.728c3.072 0 5.12-2.048 5.12-5.12v0c0-3.072-2.048-5.12-5.12-5.12h-73.728c-3.072 0-5.12 2.048-5.12 5.12v0c0 3.072 2.048 5.12 5.12 5.12zM159.744 609.28h41.984c3.072 0 5.12-2.048 5.12-5.12v0c0-3.072-2.048-5.12-5.12-5.12h-41.984c-3.072 0-5.12 2.048-5.12 5.12v0c0 3.072 2.048 5.12 5.12 5.12z" />
<glyph unicode="&#xe95f;" glyph-name="glossy-carousel" d="M440.32 193.536h-276.48c-28.672 0-51.2 22.528-51.2 51.2v378.88c0 28.672 22.528 51.2 51.2 51.2h276.48c28.672 0 51.2-22.528 51.2-51.2v-378.88c0-27.648-22.528-51.2-51.2-51.2zM163.84 654.336c-17.408 0-30.72-13.312-30.72-30.72v-378.88c0-17.408 13.312-30.72 30.72-30.72h276.48c17.408 0 30.72 13.312 30.72 30.72v378.88c0 17.408-13.312 30.72-30.72 30.72h-276.48zM394.24 142.336h-184.32c-6.144 0-10.24 4.096-10.24 10.24v0c0 6.144 4.096 10.24 10.24 10.24h184.32c6.144 0 10.24-4.096 10.24-10.24v0c0-5.12-4.096-10.24-10.24-10.24zM303.104 118.784l2.048-7.168c0 0 1.024-1.024 1.024-1.024h8.192c1.024 0 2.048-1.024 1.024-2.048l-6.144-5.12c0 0-1.024-1.024 0-1.024l2.048-7.168c0-1.024-1.024-2.048-2.048-1.024l-6.144 3.072c0 0-1.024 0-1.024 0l-6.144-5.12c-1.024-1.024-2.048 0-2.048 1.024l2.048 7.168c0 0 0 1.024 0 1.024l-7.168 6.144c-1.024 1.024 0 2.048 1.024 2.048h7.168c1.024 0 1.024 0 1.024 1.024l2.048 7.168c1.024 2.048 3.072 2.048 3.072 1.024zM336.896 118.784l2.048-7.168c0 0 1.024-1.024 1.024-1.024h8.192c1.024 0 2.048-1.024 1.024-2.048l-6.144-5.12c0 0-1.024-1.024 0-1.024l2.048-7.168c0-1.024-1.024-2.048-2.048-1.024l-7.168 3.072c0 0-1.024 0-1.024 0l-6.144-5.12c-1.024-1.024-2.048 0-2.048 1.024l2.048 7.168c0 0 0 1.024 0 1.024l-6.144 6.144c-1.024 1.024 0 2.048 1.024 2.048h8.192c1.024 0 1.024 0 1.024 1.024l2.048 7.168c0 2.048 1.024 2.048 2.048 1.024zM370.688 118.784l2.048-7.168c0 0 1.024-1.024 1.024-1.024h8.192c1.024 0 2.048-1.024 1.024-2.048l-6.144-5.12c0 0-1.024-1.024 0-1.024l2.048-7.168c0-1.024-1.024-2.048-2.048-1.024l-7.168 3.072c0 0-1.024 0-1.024 0l-6.144-5.12c-1.024-1.024-2.048 0-2.048 1.024l2.048 7.168c0 0 0 1.024 0 1.024l-7.168 6.144c-1.024 1.024 0 2.048 1.024 2.048h8.192c1.024 0 1.024 0 1.024 1.024l2.048 7.168c1.024 2.048 2.048 2.048 3.072 1.024zM236.544 118.784l2.048-7.168c0 0 1.024-1.024 1.024-1.024h8.192c1.024 0 2.048-1.024 1.024-2.048l-6.144-5.12c0 0-1.024-1.024 0-1.024l2.048-7.168c0-1.024-1.024-2.048-2.048-1.024l-7.168 3.072c0 0-1.024 0-1.024 0l-6.144-5.12c-1.024-1.024-2.048 0-2.048 1.024l2.048 7.168c0 0 0 1.024 0 1.024l-6.144 6.144c-1.024 1.024 0 2.048 1.024 2.048h8.192c1.024 0 1.024 0 1.024 1.024l2.048 7.168c0 2.048 1.024 2.048 2.048 1.024zM269.312 118.784l2.048-7.168c0 0 1.024-1.024 1.024-1.024h8.192c1.024 0 2.048-1.024 1.024-2.048l-6.144-5.12c0 0-1.024-1.024 0-1.024l2.048-7.168c0-1.024-1.024-2.048-2.048-1.024l-6.144 3.072c0 0-1.024 0-1.024 0l-6.144-5.12c-1.024-1.024-2.048 0-2.048 1.024l2.048 7.168c0 0 0 1.024 0 1.024l-7.168 6.144c-1.024 1.024 0 2.048 1.024 2.048h8.192c1.024 0 1.024 0 1.024 1.024l2.048 7.168c1.024 2.048 2.048 2.048 2.048 1.024zM440.32 193.536h-276.48c-28.672 0-51.2 22.528-51.2 51.2 0 14.336 6.144 27.648 15.36 36.864l68.608 66.56c19.456 19.456 52.224 19.456 71.68-1.024l10.24-10.24c12.288-12.288 31.744-12.288 43.008 0l38.912 38.912c9.216 9.216 22.528 15.36 35.84 15.36 0 0 0 0 0 0 13.312 0 26.624-5.12 35.84-15.36l43.008-43.008c9.216-9.216 15.36-22.528 15.36-35.84v-51.2c1.024-28.672-21.504-52.224-50.176-52.224zM232.448 342.016c-8.192 0-15.36-3.072-21.504-8.192l-68.608-66.56c-6.144-6.144-9.216-13.312-9.216-22.528 0-17.408 13.312-30.72 30.72-30.72h276.48c17.408 0 30.72 13.312 30.72 30.72v51.2c0 8.192-3.072 16.384-9.216 21.504l-43.008 43.008c-6.144 6.144-13.312 9.216-21.504 9.216 0 0 0 0 0 0-8.192 0-16.384-3.072-21.504-9.216l-38.912-38.912c-19.456-19.456-52.224-19.456-72.704 0l-10.24 10.24c-6.144 7.168-13.312 10.24-21.504 10.24zM322.56 393.216c0-11.311-9.169-20.48-20.48-20.48s-20.48 9.169-20.48 20.48c0 11.311 9.169 20.48 20.48 20.48s20.48-9.169 20.48-20.48zM184.32 577.536c-14.336 0-25.6 11.264-25.6 25.6s11.264 25.6 25.6 25.6 25.6-11.264 25.6-25.6-11.264-25.6-25.6-25.6zM184.32 618.496c-8.192 0-15.36-7.168-15.36-15.36s7.168-15.36 15.36-15.36 15.36 7.168 15.36 15.36-7.168 15.36-15.36 15.36zM184.32 505.856c-14.336 0-25.6 11.264-25.6 25.6s11.264 25.6 25.6 25.6 25.6-11.264 25.6-25.6-11.264-25.6-25.6-25.6zM184.32 546.816c-8.192 0-15.36-7.168-15.36-15.36s7.168-15.36 15.36-15.36 15.36 7.168 15.36 15.36-7.168 15.36-15.36 15.36zM363.52 623.616h71.68c3.072 0 5.12-2.048 5.12-5.12v0c0-3.072-2.048-5.12-5.12-5.12h-71.68c-3.072 0-5.12 2.048-5.12 5.12v0c0 3.072 2.048 5.12 5.12 5.12zM384 562.176h51.2c3.072 0 5.12-2.048 5.12-5.12v0c0-3.072-2.048-5.12-5.12-5.12h-51.2c-3.072 0-5.12 2.048-5.12 5.12v0c0 3.072 2.048 5.12 5.12 5.12zM394.24 592.896h40.96c3.072 0 5.12-2.048 5.12-5.12v0c0-3.072-2.048-5.12-5.12-5.12h-40.96c-3.072 0-5.12 2.048-5.12 5.12v0c0 3.072 2.048 5.12 5.12 5.12zM860.16 193.536h-276.48c-28.672 0-51.2 22.528-51.2 51.2v378.88c0 28.672 22.528 51.2 51.2 51.2h276.48c28.672 0 51.2-22.528 51.2-51.2v-378.88c0-27.648-22.528-51.2-51.2-51.2zM583.68 654.336c-17.408 0-30.72-13.312-30.72-30.72v-378.88c0-17.408 13.312-30.72 30.72-30.72h276.48c17.408 0 30.72 13.312 30.72 30.72v378.88c0 17.408-13.312 30.72-30.72 30.72h-276.48zM814.080 142.336h-184.32c-6.144 0-10.24 4.096-10.24 10.24v0c0 6.144 4.096 10.24 10.24 10.24h184.32c6.144 0 10.24-4.096 10.24-10.24v0c0-5.12-4.096-10.24-10.24-10.24zM722.944 118.784l2.048-7.168c0 0 1.024-1.024 1.024-1.024h8.192c1.024 0 2.048-1.024 1.024-2.048l-6.144-5.12c0 0-1.024-1.024 0-1.024l2.048-7.168c0-1.024-1.024-2.048-2.048-1.024l-6.144 3.072c0 0-1.024 0-1.024 0l-6.144-5.12c-1.024-1.024-2.048 0-2.048 1.024l2.048 7.168c0 0 0 1.024 0 1.024l-7.168 6.144c-1.024 1.024 0 2.048 1.024 2.048h7.168c1.024 0 1.024 0 1.024 1.024l2.048 7.168c1.024 2.048 3.072 2.048 3.072 1.024zM756.736 118.784l2.048-7.168c0 0 1.024-1.024 1.024-1.024h8.192c1.024 0 2.048-1.024 1.024-2.048l-6.144-5.12c0 0-1.024-1.024 0-1.024l2.048-7.168c0-1.024-1.024-2.048-2.048-1.024l-7.168 3.072c0 0-1.024 0-1.024 0l-6.144-5.12c-1.024-1.024-2.048 0-2.048 1.024l2.048 7.168c0 0 0 1.024 0 1.024l-6.144 6.144c-1.024 1.024 0 2.048 1.024 2.048h8.192c1.024 0 1.024 0 1.024 1.024l2.048 7.168c0 2.048 1.024 2.048 2.048 1.024zM790.528 118.784l2.048-7.168c0 0 1.024-1.024 1.024-1.024h8.192c1.024 0 2.048-1.024 1.024-2.048l-6.144-5.12c0 0-1.024-1.024 0-1.024l2.048-7.168c0-1.024-1.024-2.048-2.048-1.024l-7.168 3.072c0 0-1.024 0-1.024 0l-6.144-5.12c-1.024-1.024-2.048 0-2.048 1.024l2.048 7.168c0 0 0 1.024 0 1.024l-7.168 6.144c-1.024 1.024 0 2.048 1.024 2.048h8.192c1.024 0 1.024 0 1.024 1.024l2.048 7.168c1.024 2.048 2.048 2.048 3.072 1.024zM656.384 118.784l2.048-7.168c0 0 1.024-1.024 1.024-1.024h8.192c1.024 0 2.048-1.024 1.024-2.048l-6.144-5.12c0 0-1.024-1.024 0-1.024l2.048-7.168c0-1.024-1.024-2.048-2.048-1.024l-7.168 3.072c0 0-1.024 0-1.024 0l-6.144-5.12c-1.024-1.024-2.048 0-2.048 1.024l2.048 7.168c0 0 0 1.024 0 1.024l-6.144 6.144c-1.024 1.024 0 2.048 1.024 2.048h8.192c1.024 0 1.024 0 1.024 1.024l2.048 7.168c0 2.048 1.024 2.048 2.048 1.024zM689.152 118.784l2.048-7.168c0 0 1.024-1.024 1.024-1.024h8.192c1.024 0 2.048-1.024 1.024-2.048l-6.144-5.12c0 0-1.024-1.024 0-1.024l2.048-7.168c0-1.024-1.024-2.048-2.048-1.024l-6.144 3.072c0 0-1.024 0-1.024 0l-6.144-5.12c-1.024-1.024-2.048 0-2.048 1.024l2.048 7.168c0 0 0 1.024 0 1.024l-7.168 6.144c-1.024 1.024 0 2.048 1.024 2.048h8.192c1.024 0 1.024 0 1.024 1.024l2.048 7.168c1.024 2.048 2.048 2.048 2.048 1.024zM860.16 193.536h-276.48c-28.672 0-51.2 22.528-51.2 51.2 0 14.336 6.144 27.648 15.36 36.864l68.608 66.56c19.456 19.456 52.224 19.456 71.68-1.024l10.24-10.24c12.288-12.288 31.744-12.288 43.008 0l38.912 38.912c9.216 9.216 22.528 15.36 35.84 15.36 0 0 0 0 0 0 13.312 0 26.624-5.12 35.84-15.36l43.008-43.008c9.216-9.216 15.36-22.528 15.36-35.84v-51.2c1.024-28.672-21.504-52.224-50.176-52.224zM652.288 342.016c-8.192 0-15.36-3.072-21.504-8.192l-68.608-66.56c-6.144-6.144-9.216-13.312-9.216-22.528 0-17.408 13.312-30.72 30.72-30.72h276.48c17.408 0 30.72 13.312 30.72 30.72v51.2c0 8.192-3.072 16.384-9.216 21.504l-43.008 43.008c-6.144 6.144-13.312 9.216-21.504 9.216 0 0 0 0 0 0-8.192 0-16.384-3.072-21.504-9.216l-38.912-38.912c-19.456-19.456-52.224-19.456-72.704 0l-10.24 10.24c-6.144 7.168-13.312 10.24-21.504 10.24zM742.4 393.216c0-11.311-9.169-20.48-20.48-20.48s-20.48 9.169-20.48 20.48c0 11.311 9.169 20.48 20.48 20.48s20.48-9.169 20.48-20.48zM604.16 577.536c-14.336 0-25.6 11.264-25.6 25.6s11.264 25.6 25.6 25.6 25.6-11.264 25.6-25.6-11.264-25.6-25.6-25.6zM604.16 618.496c-8.192 0-15.36-7.168-15.36-15.36s7.168-15.36 15.36-15.36 15.36 7.168 15.36 15.36-7.168 15.36-15.36 15.36zM604.16 505.856c-14.336 0-25.6 11.264-25.6 25.6s11.264 25.6 25.6 25.6 25.6-11.264 25.6-25.6-11.264-25.6-25.6-25.6zM604.16 546.816c-8.192 0-15.36-7.168-15.36-15.36s7.168-15.36 15.36-15.36 15.36 7.168 15.36 15.36-7.168 15.36-15.36 15.36zM783.36 623.616h71.68c3.072 0 5.12-2.048 5.12-5.12v0c0-3.072-2.048-5.12-5.12-5.12h-71.68c-3.072 0-5.12 2.048-5.12 5.12v0c0 3.072 2.048 5.12 5.12 5.12zM803.84 562.176h51.2c3.072 0 5.12-2.048 5.12-5.12v0c0-3.072-2.048-5.12-5.12-5.12h-51.2c-3.072 0-5.12 2.048-5.12 5.12v0c0 3.072 2.048 5.12 5.12 5.12zM814.080 592.896h40.96c3.072 0 5.12-2.048 5.12-5.12v0c0-3.072-2.048-5.12-5.12-5.12h-40.96c-3.072 0-5.12 2.048-5.12 5.12v0c0 3.072 2.048 5.12 5.12 5.12zM952.32 394.24v0c-4.096 4.096-4.096 10.24 0 14.336l36.864 36.864-36.864 36.864c-4.096 4.096-4.096 10.24 0 14.336v0c4.096 4.096 10.24 4.096 14.336 0l51.2-51.2-51.2-51.2c-4.096-4.096-10.24-4.096-14.336 0zM57.344 394.24l-51.2 51.2 51.2 51.2c4.096 4.096 10.24 4.096 14.336 0v0c4.096-4.096 4.096-10.24 0-14.336l-36.864-36.864 36.864-36.864c4.096-4.096 4.096-10.24 0-14.336v0c-4.096-4.096-10.24-4.096-14.336 0z" />
<glyph unicode="&#xe960;" glyph-name="glossy-grid" d="M440.32 193.536h-276.48c-28.672 0-51.2 22.528-51.2 51.2v378.88c0 28.672 22.528 51.2 51.2 51.2h276.48c28.672 0 51.2-22.528 51.2-51.2v-378.88c0-27.648-22.528-51.2-51.2-51.2zM163.84 654.336c-17.408 0-30.72-13.312-30.72-30.72v-378.88c0-17.408 13.312-30.72 30.72-30.72h276.48c17.408 0 30.72 13.312 30.72 30.72v378.88c0 17.408-13.312 30.72-30.72 30.72h-276.48zM394.24 142.336h-184.32c-6.144 0-10.24 4.096-10.24 10.24v0c0 6.144 4.096 10.24 10.24 10.24h184.32c6.144 0 10.24-4.096 10.24-10.24v0c0-5.12-4.096-10.24-10.24-10.24zM303.104 118.784l2.048-7.168c0 0 1.024-1.024 1.024-1.024h8.192c1.024 0 2.048-1.024 1.024-2.048l-6.144-5.12c0 0-1.024-1.024 0-1.024l2.048-7.168c0-1.024-1.024-2.048-2.048-1.024l-6.144 3.072c0 0-1.024 0-1.024 0l-6.144-5.12c-1.024-1.024-2.048 0-2.048 1.024l2.048 7.168c0 0 0 1.024 0 1.024l-7.168 6.144c-1.024 1.024 0 2.048 1.024 2.048h7.168c1.024 0 1.024 0 1.024 1.024l2.048 7.168c1.024 2.048 3.072 2.048 3.072 1.024zM336.896 118.784l2.048-7.168c0 0 1.024-1.024 1.024-1.024h8.192c1.024 0 2.048-1.024 1.024-2.048l-6.144-5.12c0 0-1.024-1.024 0-1.024l2.048-7.168c0-1.024-1.024-2.048-2.048-1.024l-7.168 3.072c0 0-1.024 0-1.024 0l-6.144-5.12c-1.024-1.024-2.048 0-2.048 1.024l2.048 7.168c0 0 0 1.024 0 1.024l-6.144 6.144c-1.024 1.024 0 2.048 1.024 2.048h8.192c1.024 0 1.024 0 1.024 1.024l2.048 7.168c0 2.048 1.024 2.048 2.048 1.024zM370.688 118.784l2.048-7.168c0 0 1.024-1.024 1.024-1.024h8.192c1.024 0 2.048-1.024 1.024-2.048l-6.144-5.12c0 0-1.024-1.024 0-1.024l2.048-7.168c0-1.024-1.024-2.048-2.048-1.024l-7.168 3.072c0 0-1.024 0-1.024 0l-6.144-5.12c-1.024-1.024-2.048 0-2.048 1.024l2.048 7.168c0 0 0 1.024 0 1.024l-7.168 6.144c-1.024 1.024 0 2.048 1.024 2.048h8.192c1.024 0 1.024 0 1.024 1.024l2.048 7.168c1.024 2.048 2.048 2.048 3.072 1.024zM236.544 118.784l2.048-7.168c0 0 1.024-1.024 1.024-1.024h8.192c1.024 0 2.048-1.024 1.024-2.048l-6.144-5.12c0 0-1.024-1.024 0-1.024l2.048-7.168c0-1.024-1.024-2.048-2.048-1.024l-7.168 3.072c0 0-1.024 0-1.024 0l-6.144-5.12c-1.024-1.024-2.048 0-2.048 1.024l2.048 7.168c0 0 0 1.024 0 1.024l-6.144 6.144c-1.024 1.024 0 2.048 1.024 2.048h8.192c1.024 0 1.024 0 1.024 1.024l2.048 7.168c0 2.048 1.024 2.048 2.048 1.024zM269.312 118.784l2.048-7.168c0 0 1.024-1.024 1.024-1.024h8.192c1.024 0 2.048-1.024 1.024-2.048l-6.144-5.12c0 0-1.024-1.024 0-1.024l2.048-7.168c0-1.024-1.024-2.048-2.048-1.024l-6.144 3.072c0 0-1.024 0-1.024 0l-6.144-5.12c-1.024-1.024-2.048 0-2.048 1.024l2.048 7.168c0 0 0 1.024 0 1.024l-7.168 6.144c-1.024 1.024 0 2.048 1.024 2.048h8.192c1.024 0 1.024 0 1.024 1.024l2.048 7.168c1.024 2.048 2.048 2.048 2.048 1.024zM440.32 193.536h-276.48c-28.672 0-51.2 22.528-51.2 51.2 0 14.336 6.144 27.648 15.36 36.864l68.608 66.56c19.456 19.456 52.224 19.456 71.68-1.024l10.24-10.24c12.288-12.288 31.744-12.288 43.008 0l38.912 38.912c9.216 9.216 22.528 15.36 35.84 15.36 0 0 0 0 0 0 13.312 0 26.624-5.12 35.84-15.36l43.008-43.008c9.216-9.216 15.36-22.528 15.36-35.84v-51.2c1.024-28.672-21.504-52.224-50.176-52.224zM232.448 342.016c-8.192 0-15.36-3.072-21.504-8.192l-68.608-66.56c-6.144-6.144-9.216-13.312-9.216-22.528 0-17.408 13.312-30.72 30.72-30.72h276.48c17.408 0 30.72 13.312 30.72 30.72v51.2c0 8.192-3.072 16.384-9.216 21.504l-43.008 43.008c-6.144 6.144-13.312 9.216-21.504 9.216 0 0 0 0 0 0-8.192 0-16.384-3.072-21.504-9.216l-38.912-38.912c-19.456-19.456-52.224-19.456-72.704 0l-10.24 10.24c-6.144 7.168-13.312 10.24-21.504 10.24zM322.56 393.216c0-11.311-9.169-20.48-20.48-20.48s-20.48 9.169-20.48 20.48c0 11.311 9.169 20.48 20.48 20.48s20.48-9.169 20.48-20.48zM184.32 577.536c-14.336 0-25.6 11.264-25.6 25.6s11.264 25.6 25.6 25.6 25.6-11.264 25.6-25.6-11.264-25.6-25.6-25.6zM184.32 618.496c-8.192 0-15.36-7.168-15.36-15.36s7.168-15.36 15.36-15.36 15.36 7.168 15.36 15.36-7.168 15.36-15.36 15.36zM184.32 505.856c-14.336 0-25.6 11.264-25.6 25.6s11.264 25.6 25.6 25.6 25.6-11.264 25.6-25.6-11.264-25.6-25.6-25.6zM184.32 546.816c-8.192 0-15.36-7.168-15.36-15.36s7.168-15.36 15.36-15.36 15.36 7.168 15.36 15.36-7.168 15.36-15.36 15.36zM363.52 623.616h71.68c3.072 0 5.12-2.048 5.12-5.12v0c0-3.072-2.048-5.12-5.12-5.12h-71.68c-3.072 0-5.12 2.048-5.12 5.12v0c0 3.072 2.048 5.12 5.12 5.12zM384 562.176h51.2c3.072 0 5.12-2.048 5.12-5.12v0c0-3.072-2.048-5.12-5.12-5.12h-51.2c-3.072 0-5.12 2.048-5.12 5.12v0c0 3.072 2.048 5.12 5.12 5.12zM394.24 592.896h40.96c3.072 0 5.12-2.048 5.12-5.12v0c0-3.072-2.048-5.12-5.12-5.12h-40.96c-3.072 0-5.12 2.048-5.12 5.12v0c0 3.072 2.048 5.12 5.12 5.12zM860.16 193.536h-276.48c-28.672 0-51.2 22.528-51.2 51.2v378.88c0 28.672 22.528 51.2 51.2 51.2h276.48c28.672 0 51.2-22.528 51.2-51.2v-378.88c0-27.648-22.528-51.2-51.2-51.2zM583.68 654.336c-17.408 0-30.72-13.312-30.72-30.72v-378.88c0-17.408 13.312-30.72 30.72-30.72h276.48c17.408 0 30.72 13.312 30.72 30.72v378.88c0 17.408-13.312 30.72-30.72 30.72h-276.48zM814.080 142.336h-184.32c-6.144 0-10.24 4.096-10.24 10.24v0c0 6.144 4.096 10.24 10.24 10.24h184.32c6.144 0 10.24-4.096 10.24-10.24v0c0-5.12-4.096-10.24-10.24-10.24zM722.944 118.784l2.048-7.168c0 0 1.024-1.024 1.024-1.024h8.192c1.024 0 2.048-1.024 1.024-2.048l-6.144-5.12c0 0-1.024-1.024 0-1.024l2.048-7.168c0-1.024-1.024-2.048-2.048-1.024l-6.144 3.072c0 0-1.024 0-1.024 0l-6.144-5.12c-1.024-1.024-2.048 0-2.048 1.024l2.048 7.168c0 0 0 1.024 0 1.024l-7.168 6.144c-1.024 1.024 0 2.048 1.024 2.048h7.168c1.024 0 1.024 0 1.024 1.024l2.048 7.168c1.024 2.048 3.072 2.048 3.072 1.024zM756.736 118.784l2.048-7.168c0 0 1.024-1.024 1.024-1.024h8.192c1.024 0 2.048-1.024 1.024-2.048l-6.144-5.12c0 0-1.024-1.024 0-1.024l2.048-7.168c0-1.024-1.024-2.048-2.048-1.024l-7.168 3.072c0 0-1.024 0-1.024 0l-6.144-5.12c-1.024-1.024-2.048 0-2.048 1.024l2.048 7.168c0 0 0 1.024 0 1.024l-6.144 6.144c-1.024 1.024 0 2.048 1.024 2.048h8.192c1.024 0 1.024 0 1.024 1.024l2.048 7.168c0 2.048 1.024 2.048 2.048 1.024zM790.528 118.784l2.048-7.168c0 0 1.024-1.024 1.024-1.024h8.192c1.024 0 2.048-1.024 1.024-2.048l-6.144-5.12c0 0-1.024-1.024 0-1.024l2.048-7.168c0-1.024-1.024-2.048-2.048-1.024l-7.168 3.072c0 0-1.024 0-1.024 0l-6.144-5.12c-1.024-1.024-2.048 0-2.048 1.024l2.048 7.168c0 0 0 1.024 0 1.024l-7.168 6.144c-1.024 1.024 0 2.048 1.024 2.048h8.192c1.024 0 1.024 0 1.024 1.024l2.048 7.168c1.024 2.048 2.048 2.048 3.072 1.024zM656.384 118.784l2.048-7.168c0 0 1.024-1.024 1.024-1.024h8.192c1.024 0 2.048-1.024 1.024-2.048l-6.144-5.12c0 0-1.024-1.024 0-1.024l2.048-7.168c0-1.024-1.024-2.048-2.048-1.024l-7.168 3.072c0 0-1.024 0-1.024 0l-6.144-5.12c-1.024-1.024-2.048 0-2.048 1.024l2.048 7.168c0 0 0 1.024 0 1.024l-6.144 6.144c-1.024 1.024 0 2.048 1.024 2.048h8.192c1.024 0 1.024 0 1.024 1.024l2.048 7.168c0 2.048 1.024 2.048 2.048 1.024zM689.152 118.784l2.048-7.168c0 0 1.024-1.024 1.024-1.024h8.192c1.024 0 2.048-1.024 1.024-2.048l-6.144-5.12c0 0-1.024-1.024 0-1.024l2.048-7.168c0-1.024-1.024-2.048-2.048-1.024l-6.144 3.072c0 0-1.024 0-1.024 0l-6.144-5.12c-1.024-1.024-2.048 0-2.048 1.024l2.048 7.168c0 0 0 1.024 0 1.024l-7.168 6.144c-1.024 1.024 0 2.048 1.024 2.048h8.192c1.024 0 1.024 0 1.024 1.024l2.048 7.168c1.024 2.048 2.048 2.048 2.048 1.024zM860.16 193.536h-276.48c-28.672 0-51.2 22.528-51.2 51.2 0 14.336 6.144 27.648 15.36 36.864l68.608 66.56c19.456 19.456 52.224 19.456 71.68-1.024l10.24-10.24c12.288-12.288 31.744-12.288 43.008 0l38.912 38.912c9.216 9.216 22.528 15.36 35.84 15.36 0 0 0 0 0 0 13.312 0 26.624-5.12 35.84-15.36l43.008-43.008c9.216-9.216 15.36-22.528 15.36-35.84v-51.2c1.024-28.672-21.504-52.224-50.176-52.224zM652.288 342.016c-8.192 0-15.36-3.072-21.504-8.192l-68.608-66.56c-6.144-6.144-9.216-13.312-9.216-22.528 0-17.408 13.312-30.72 30.72-30.72h276.48c17.408 0 30.72 13.312 30.72 30.72v51.2c0 8.192-3.072 16.384-9.216 21.504l-43.008 43.008c-6.144 6.144-13.312 9.216-21.504 9.216 0 0 0 0 0 0-8.192 0-16.384-3.072-21.504-9.216l-38.912-38.912c-19.456-19.456-52.224-19.456-72.704 0l-10.24 10.24c-6.144 7.168-13.312 10.24-21.504 10.24zM742.4 393.216c0-11.311-9.169-20.48-20.48-20.48s-20.48 9.169-20.48 20.48c0 11.311 9.169 20.48 20.48 20.48s20.48-9.169 20.48-20.48zM604.16 577.536c-14.336 0-25.6 11.264-25.6 25.6s11.264 25.6 25.6 25.6 25.6-11.264 25.6-25.6-11.264-25.6-25.6-25.6zM604.16 618.496c-8.192 0-15.36-7.168-15.36-15.36s7.168-15.36 15.36-15.36 15.36 7.168 15.36 15.36-7.168 15.36-15.36 15.36zM604.16 505.856c-14.336 0-25.6 11.264-25.6 25.6s11.264 25.6 25.6 25.6 25.6-11.264 25.6-25.6-11.264-25.6-25.6-25.6zM604.16 546.816c-8.192 0-15.36-7.168-15.36-15.36s7.168-15.36 15.36-15.36 15.36 7.168 15.36 15.36-7.168 15.36-15.36 15.36zM783.36 623.616h71.68c3.072 0 5.12-2.048 5.12-5.12v0c0-3.072-2.048-5.12-5.12-5.12h-71.68c-3.072 0-5.12 2.048-5.12 5.12v0c0 3.072 2.048 5.12 5.12 5.12zM803.84 562.176h51.2c3.072 0 5.12-2.048 5.12-5.12v0c0-3.072-2.048-5.12-5.12-5.12h-51.2c-3.072 0-5.12 2.048-5.12 5.12v0c0 3.072 2.048 5.12 5.12 5.12zM814.080 592.896h40.96c3.072 0 5.12-2.048 5.12-5.12v0c0-3.072-2.048-5.12-5.12-5.12h-40.96c-3.072 0-5.12 2.048-5.12 5.12v0c0 3.072 2.048 5.12 5.12 5.12z" />
<glyph unicode="&#xe961;" glyph-name="video-player, tutorial" d="M0 768v-768h1024v768h-1024zM192 64h-128v128h128v-128zM192 320h-128v128h128v-128zM192 576h-128v128h128v-128zM768 64h-512v640h512v-640zM960 64h-128v128h128v-128zM960 320h-128v128h128v-128zM960 576h-128v128h128v-128zM384 576v-384l256 192z" />
<glyph unicode="&#xe962;" glyph-name="meta" d="M870.4 76.8h-716.8c-28.672 0-51.2 22.528-51.2 51.2v512c0 28.672 22.528 51.2 51.2 51.2h716.8c28.672 0 51.2-22.528 51.2-51.2v-512c0-28.672-22.528-51.2-51.2-51.2zM153.6 670.72c-17.408 0-30.72-13.312-30.72-30.72v-512c0-17.408 13.312-30.72 30.72-30.72h716.8c17.408 0 30.72 13.312 30.72 30.72v512c0 17.408-13.312 30.72-30.72 30.72h-716.8zM674.816 251.904v0c-4.096 4.096-4.096 10.24 0 14.336l104.448 104.448c8.192 8.192 8.192 20.48 0 28.672l-104.448 106.496c-4.096 4.096-4.096 10.24 0 14.336v0c4.096 4.096 10.24 4.096 14.336 0l105.472-105.472c16.384-16.384 16.384-41.984 0-58.368l-105.472-104.448c-4.096-3.072-10.24-3.072-14.336 0zM334.848 251.904l-105.472 105.472c-16.384 16.384-16.384 41.984 0 58.368l104.448 104.448c4.096 4.096 10.24 4.096 14.336 0v0c4.096-4.096 4.096-10.24 0-14.336l-104.448-105.472c-8.192-8.192-8.192-20.48 0-28.672l104.448-104.448c4.096-4.096 4.096-10.24 0-14.336v0c-3.072-4.096-9.216-4.096-13.312-1.024zM387.072 164.864v0c-5.12 3.072-6.144 9.216-4.096 14.336l240.64 420.864c3.072 5.12 9.216 6.144 14.336 4.096v0c5.12-3.072 6.144-9.216 4.096-14.336l-241.664-421.888c-2.048-4.096-9.216-6.144-13.312-3.072z" />
<glyph unicode="&#xe963;" glyph-name="product-accordion" d="M890.88 201.728h-757.76c-17.408 0-30.72-13.312-30.72-30.72v-165.888c0-17.408 13.312-30.72 30.72-30.72h757.76c17.408 0 30.72 13.312 30.72 30.72v165.888c0 17.408-13.312 30.72-30.72 30.72zM901.12 5.12c0-6.144-4.096-10.24-10.24-10.24h-757.76c-6.144 0-10.24 4.096-10.24 10.24v165.888c0 6.144 4.096 10.24 10.24 10.24h757.76c6.144 0 10.24-4.096 10.24-10.24v-165.888zM890.88 497.664h-757.76c-17.408 0-30.72-13.312-30.72-30.72v-165.888c0-17.408 13.312-30.72 30.72-30.72h757.76c17.408 0 30.72 13.312 30.72 30.72v165.888c0 17.408-13.312 30.72-30.72 30.72zM901.12 301.056c0-6.144-4.096-10.24-10.24-10.24h-757.76c-6.144 0-10.24 4.096-10.24 10.24v165.888c0 6.144 4.096 10.24 10.24 10.24h757.76c6.144 0 10.24-4.096 10.24-10.24v-165.888zM890.88 793.6h-757.76c-17.408 0-30.72-13.312-30.72-30.72v-165.888c0-17.408 13.312-30.72 30.72-30.72h757.76c17.408 0 30.72 13.312 30.72 30.72v165.888c0 17.408-13.312 30.72-30.72 30.72zM901.12 596.992c0-6.144-4.096-10.24-10.24-10.24h-757.76c-6.144 0-10.24 4.096-10.24 10.24v165.888c0 6.144 4.096 10.24 10.24 10.24h757.76c6.144 0 10.24-4.096 10.24-10.24v-165.888zM450.56 394.24h-258.048c-6.144 0-10.24-4.096-10.24-10.24s4.096-10.24 10.24-10.24h258.048c6.144 0 10.24 4.096 10.24 10.24s-4.096 10.24-10.24 10.24zM450.56 98.304h-258.048c-6.144 0-10.24-4.096-10.24-10.24s4.096-10.24 10.24-10.24h258.048c6.144 0 10.24 4.096 10.24 10.24s-4.096 10.24-10.24 10.24zM828.416 394.24h-30.72v30.72c0 6.144-4.096 10.24-10.24 10.24s-10.24-4.096-10.24-10.24v-30.72h-30.72c-6.144 0-10.24-4.096-10.24-10.24s4.096-10.24 10.24-10.24h30.72v-30.72c0-6.144 4.096-10.24 10.24-10.24s10.24 4.096 10.24 10.24v30.72h30.72c6.144 0 10.24 4.096 10.24 10.24s-4.096 10.24-10.24 10.24zM450.56 690.176h-258.048c-6.144 0-10.24-4.096-10.24-10.24s4.096-10.24 10.24-10.24h258.048c6.144 0 10.24 4.096 10.24 10.24s-4.096 10.24-10.24 10.24zM828.416 690.176h-30.72v30.72c0 6.144-4.096 10.24-10.24 10.24s-10.24-4.096-10.24-10.24v-30.72h-30.72c-6.144 0-10.24-4.096-10.24-10.24s4.096-10.24 10.24-10.24h30.72v-30.72c0-6.144 4.096-10.24 10.24-10.24s10.24 4.096 10.24 10.24v30.72h30.72c6.144 0 10.24 4.096 10.24 10.24s-4.096 10.24-10.24 10.24zM828.416 98.304h-30.72v30.72c0 6.144-4.096 10.24-10.24 10.24s-10.24-4.096-10.24-10.24v-30.72h-30.72c-6.144 0-10.24-4.096-10.24-10.24s4.096-10.24 10.24-10.24h30.72v-30.72c0-6.144 4.096-10.24 10.24-10.24s10.24 4.096 10.24 10.24v30.72h30.72c6.144 0 10.24 4.096 10.24 10.24s-4.096 10.24-10.24 10.24z" />
<glyph unicode="&#xe964;" glyph-name="product-category" d="M870.4 475.136h-64.512v107.52c0 28.672-22.528 51.2-51.2 51.2h-47.104v108.544c0 28.672-22.528 51.2-51.2 51.2h-288.768c-28.672 0-51.2-22.528-51.2-51.2v-108.544h-47.104c-28.672 0-51.2-22.528-51.2-51.2v-108.544h-64.512c-28.672 0-51.2-22.528-51.2-51.2v-397.312c0-28.672 22.528-51.2 51.2-51.2h716.8c28.672 0 51.2 22.528 51.2 51.2v398.336c0 27.648-22.528 51.2-51.2 51.2zM336.896 742.4c0 17.408 13.312 30.72 30.72 30.72h288.768c17.408 0 30.72-13.312 30.72-30.72v-108.544h-350.208v108.544zM238.592 582.656c0 17.408 13.312 30.72 30.72 30.72h485.376c17.408 0 30.72-13.312 30.72-30.72v-108.544h-546.816v108.544zM901.12 25.6c0-17.408-13.312-30.72-30.72-30.72h-716.8c-17.408 0-30.72 13.312-30.72 30.72v398.336c0 17.408 13.312 30.72 30.72 30.72h716.8c17.408 0 30.72-13.312 30.72-30.72v-398.336z" />
<glyph unicode="&#xe965;" glyph-name="product-gallery" d="M484.352 386.048c-27.648 0-49.152 20.48-49.152 49.152 0 26.624 21.504 49.152 49.152 49.152s49.152-20.48 49.152-49.152c0-12.288-4.096-24.576-13.312-33.792s-22.528-15.36-35.84-15.36zM484.352 462.848c-15.36 0-28.672-13.312-28.672-28.672s13.312-28.672 28.672-28.672 28.672 13.312 28.672 28.672-13.312 28.672-28.672 28.672zM134.144 53.248c-18.432 0-31.744 13.312-31.744 31.744v439.296c0 18.432 13.312 31.744 31.744 31.744h600.064c18.432 0 31.744-13.312 31.744-31.744v-439.296c0-18.432-13.312-31.744-31.744-31.744h-600.064zM123.904 84.992c0-6.144 5.12-11.264 11.264-11.264h600.064c6.144 0 11.264 5.12 11.264 11.264v77.824l-153.6 152.576c-2.048 2.048-5.12 3.072-7.168 3.072-3.072 0-5.12-1.024-7.168-3.072l-68.608-68.608 54.272-54.272c2.048-2.048 3.072-4.096 3.072-7.168s-1.024-5.12-3.072-7.168-4.096-3.072-7.168-3.072-5.12 1.024-7.168 3.072l-204.8 203.776c-2.048 2.048-5.12 3.072-7.168 3.072-3.072 0-5.12-1.024-7.168-3.072l-206.848-205.824v-91.136zM584.704 339.968c8.192 0 17.408-4.096 22.528-10.24l137.216-137.216v331.776c0 6.144-5.12 11.264-11.264 11.264h-599.040c-6.144 0-11.264-5.12-11.264-11.264v-317.44l192.512 190.464c5.12 6.144 13.312 10.24 21.504 10.24s17.408-4.096 22.528-10.24l135.168-135.168 67.584 67.584c6.144 6.144 14.336 10.24 22.528 10.24zM896 589.824l-587.776 123.904c-18.432 4.096-34.816-7.168-37.888-24.576l-27.648-132.096-4.096-21.504h21.504l4.096 21.504 26.624 128c1.024 6.144 7.168 10.24 13.312 8.192l585.728-123.904c6.144-1.024 10.24-7.168 8.192-13.312l-73.728-354.304-15.36-75.776c-1.024-6.144-7.168-10.24-13.312-8.192l-29.696 6.144-20.48 4.096v-20.48l21.504-4.096 24.576-5.12c18.432-4.096 34.816 7.168 37.888 24.576l91.136 430.080c4.096 16.384-7.168 33.792-24.576 36.864z" />
</font>
</defs>
</svg>
